<?xml version="1.0" encoding="UTF-8" standalone="no"?>
<!-- Created with Inkscape (http://www.inkscape.org/) -->

<svg
   xmlns:dc="http://purl.org/dc/elements/1.1/"
   xmlns:cc="http://creativecommons.org/ns#"
   xmlns:rdf="http://www.w3.org/1999/02/22-rdf-syntax-ns#"
   xmlns:svg="http://www.w3.org/2000/svg"
   xmlns="http://www.w3.org/2000/svg"
   xmlns:xlink="http://www.w3.org/1999/xlink"
   xmlns:sodipodi="http://sodipodi.sourceforge.net/DTD/sodipodi-0.dtd"
   xmlns:inkscape="http://www.inkscape.org/namespaces/inkscape"
   width="207.16605mm"
   height="100.64381mm"
   viewBox="0 0 734.0529 356.6119"
   id="svg2"
   version="1.1"
   inkscape:version="0.91 r13725"
   sodipodi:docname="GamingHeavenLogo.svg">
  <title
     id="title6665">GamingHeaven-OnlineShop-Logo</title>
  <defs
     id="defs4">
    <linearGradient
       id="linearGradient4637"
       inkscape:collect="always">
      <stop
         id="stop4639"
         offset="0"
         style="stop-color:#11acaf;stop-opacity:1" />
      <stop
         id="stop4641"
         offset="1"
         style="stop-color:#4a5053;stop-opacity:1" />
    </linearGradient>
    <linearGradient
       inkscape:collect="always"
       id="linearGradient4631">
      <stop
         style="stop-color:#11acaf;stop-opacity:1"
         offset="0"
         id="stop4633" />
      <stop
         style="stop-color:#4a5053;stop-opacity:1"
         offset="1"
         id="stop4635" />
    </linearGradient>
    <linearGradient
       inkscape:collect="always"
       id="linearGradient4625">
      <stop
         style="stop-color:#11acaf;stop-opacity:1"
         offset="0"
         id="stop4627" />
      <stop
         style="stop-color:#4a5053;stop-opacity:1"
         offset="1"
         id="stop4629" />
    </linearGradient>
    <linearGradient
       inkscape:collect="always"
       id="linearGradient4619">
      <stop
         style="stop-color:#11acaf;stop-opacity:1"
         offset="0"
         id="stop4621" />
      <stop
         style="stop-color:#4a5053;stop-opacity:1"
         offset="1"
         id="stop4623" />
    </linearGradient>
    <linearGradient
       inkscape:collect="always"
       id="linearGradient4613">
      <stop
         style="stop-color:#11acaf;stop-opacity:1"
         offset="0"
         id="stop4615" />
      <stop
         style="stop-color:#4a5053;stop-opacity:1"
         offset="1"
         id="stop4617" />
    </linearGradient>
    <linearGradient
       inkscape:collect="always"
       id="linearGradient4607">
      <stop
         style="stop-color:#11acaf;stop-opacity:1"
         offset="0"
         id="stop4609" />
      <stop
         style="stop-color:#4a5053;stop-opacity:1"
         offset="1"
         id="stop4611" />
    </linearGradient>
    <linearGradient
       inkscape:collect="always"
       id="linearGradient4601">
      <stop
         style="stop-color:#11acaf;stop-opacity:1"
         offset="0"
         id="stop4603" />
      <stop
         style="stop-color:#4a5053;stop-opacity:1"
         offset="1"
         id="stop4605" />
    </linearGradient>
    <linearGradient
       inkscape:collect="always"
       id="linearGradient4595">
      <stop
         style="stop-color:#11acaf;stop-opacity:1"
         offset="0"
         id="stop4597" />
      <stop
         style="stop-color:#4a5053;stop-opacity:1"
         offset="1"
         id="stop4599" />
    </linearGradient>
    <linearGradient
       inkscape:collect="always"
       id="linearGradient4589">
      <stop
         style="stop-color:#11acaf;stop-opacity:1"
         offset="0"
         id="stop4591" />
      <stop
         style="stop-color:#4a5053;stop-opacity:1"
         offset="1"
         id="stop4593" />
    </linearGradient>
    <linearGradient
       inkscape:collect="always"
       id="linearGradient4583">
      <stop
         style="stop-color:#11acaf;stop-opacity:1"
         offset="0"
         id="stop4585" />
      <stop
         style="stop-color:#4a5053;stop-opacity:1"
         offset="1"
         id="stop4587" />
    </linearGradient>
    <linearGradient
       inkscape:collect="always"
       id="linearGradient4577">
      <stop
         style="stop-color:#11acaf;stop-opacity:1"
         offset="0"
         id="stop4579" />
      <stop
         style="stop-color:#4a5053;stop-opacity:1"
         offset="1"
         id="stop4581" />
    </linearGradient>
    <linearGradient
       inkscape:collect="always"
       id="linearGradient4571">
      <stop
         style="stop-color:#11acaf;stop-opacity:1"
         offset="0"
         id="stop4573" />
      <stop
         style="stop-color:#4a5053;stop-opacity:1"
         offset="1"
         id="stop4575" />
    </linearGradient>
    <linearGradient
       inkscape:collect="always"
       xlink:href="#linearGradient4637"
       id="linearGradient4359"
       x1="390.00003"
       y1="643.86218"
       x2="391.50003"
       y2="725.36218"
       gradientUnits="userSpaceOnUse"
       gradientTransform="translate(-12.020816,-190.91884)" />
    <linearGradient
       inkscape:collect="always"
       xlink:href="#linearGradient4631"
       id="linearGradient4361"
       x1="390.00003"
       y1="643.86218"
       x2="391.50003"
       y2="725.36218"
       gradientUnits="userSpaceOnUse"
       gradientTransform="translate(-12.020816,-190.91884)" />
    <linearGradient
       inkscape:collect="always"
       xlink:href="#linearGradient4625"
       id="linearGradient4363"
       x1="390.00003"
       y1="643.86218"
       x2="391.50003"
       y2="725.36218"
       gradientUnits="userSpaceOnUse"
       gradientTransform="translate(-12.020816,-190.91884)" />
    <linearGradient
       inkscape:collect="always"
       xlink:href="#linearGradient4619"
       id="linearGradient4365"
       x1="390.00003"
       y1="643.86218"
       x2="391.50003"
       y2="725.36218"
       gradientUnits="userSpaceOnUse"
       gradientTransform="translate(-12.020816,-190.91884)" />
    <linearGradient
       inkscape:collect="always"
       xlink:href="#linearGradient4613"
       id="linearGradient4367"
       x1="390.00003"
       y1="643.86218"
       x2="391.50003"
       y2="725.36218"
       gradientUnits="userSpaceOnUse"
       gradientTransform="translate(-12.020816,-190.91884)" />
    <linearGradient
       inkscape:collect="always"
       xlink:href="#linearGradient4601"
       id="linearGradient4369"
       x1="390.00003"
       y1="643.86218"
       x2="391.50003"
       y2="725.36218"
       gradientUnits="userSpaceOnUse"
       gradientTransform="translate(-12.020816,-190.91884)" />
    <linearGradient
       inkscape:collect="always"
       xlink:href="#linearGradient4595"
       id="linearGradient4371"
       x1="390.00003"
       y1="643.86218"
       x2="391.50003"
       y2="725.36218"
       gradientUnits="userSpaceOnUse"
       gradientTransform="translate(-12.020816,-190.91884)" />
    <linearGradient
       inkscape:collect="always"
       xlink:href="#linearGradient4607"
       id="linearGradient4373"
       x1="390.00003"
       y1="643.86218"
       x2="391.50003"
       y2="725.36218"
       gradientUnits="userSpaceOnUse"
       gradientTransform="translate(-12.020816,-190.91884)" />
    <linearGradient
       inkscape:collect="always"
       xlink:href="#linearGradient4589"
       id="linearGradient4375"
       x1="390.00003"
       y1="643.86218"
       x2="391.50003"
       y2="725.36218"
       gradientUnits="userSpaceOnUse"
       gradientTransform="translate(-12.020816,-190.91884)" />
    <linearGradient
       inkscape:collect="always"
       xlink:href="#linearGradient4583"
       id="linearGradient4377"
       x1="390.00003"
       y1="643.86218"
       x2="391.50003"
       y2="725.36218"
       gradientUnits="userSpaceOnUse"
       gradientTransform="translate(-12.020816,-190.91884)" />
    <linearGradient
       inkscape:collect="always"
       xlink:href="#linearGradient4577"
       id="linearGradient4379"
       x1="390.00003"
       y1="643.86218"
       x2="391.50003"
       y2="725.36218"
       gradientUnits="userSpaceOnUse"
       gradientTransform="translate(-12.020816,-190.91884)" />
    <linearGradient
       inkscape:collect="always"
       xlink:href="#linearGradient4571"
       id="linearGradient4381"
       x1="390.00003"
       y1="643.86218"
       x2="391.50003"
       y2="725.36218"
       gradientUnits="userSpaceOnUse"
       gradientTransform="translate(-12.020816,-190.91884)" />
  </defs>
  <sodipodi:namedview
     id="base"
     pagecolor="#ffffff"
     bordercolor="#666666"
     borderopacity="1.0"
     inkscape:pageopacity="0.0"
     inkscape:pageshadow="2"
     inkscape:zoom="15.999999"
     inkscape:cx="319.68428"
     inkscape:cy="219.02732"
     inkscape:document-units="px"
     inkscape:current-layer="layer8"
     showgrid="false"
     inkscape:window-width="2560"
     inkscape:window-height="1377"
     inkscape:window-x="1912"
     inkscape:window-y="-8"
     inkscape:window-maximized="1"
     fit-margin-top="1.5"
     fit-margin-left="1.5"
     fit-margin-right="1.5"
     fit-margin-bottom="0.5" />
  <metadata
     id="metadata7">
    <rdf:RDF>
      <cc:Work
         rdf:about="">
        <dc:format>image/svg+xml</dc:format>
        <dc:type
           rdf:resource="http://purl.org/dc/dcmitype/StillImage" />
        <dc:title>GamingHeaven-OnlineShop-Logo</dc:title>
        <dc:date>17.11.2020</dc:date>
        <dc:creator>
          <cc:Agent>
            <dc:title>Sebastian Budde</dc:title>
          </cc:Agent>
        </dc:creator>
        <dc:contributor>
          <cc:Agent>
            <dc:title>Liza Meyer</dc:title>
          </cc:Agent>
        </dc:contributor>
      </cc:Work>
    </rdf:RDF>
  </metadata>
  <g
     inkscape:groupmode="layer"
     id="layer8"
     inkscape:label="Hintergrund"
     style="display:inline"
     transform="translate(-6.2803777,-21.355007)">
    <path
       style="display:inline;opacity:1;fill:#ffffff;fill-opacity:1;fill-rule:nonzero"
       d="M 67.186872,31.783434 C 294.50639,31.885358 483.75304,31.690184 687.0076,32.371777 687.97664,145.658 687.65446,255.25763 687.26799,369.07338 471.70002,369.74342 257.02532,369.82443 67.363649,368.94603 68.820936,258.17174 66.092338,142.51646 67.186872,31.783434 Z"
       id="path6660"
       inkscape:connector-curvature="0"
       sodipodi:nodetypes="ccccc" />
  </g>
  <g
     inkscape:groupmode="layer"
     id="layer3"
     inkscape:label="Ramen"
     style="display:inline"
     transform="translate(-6.2803777,-21.355007)">
    <path
       sodipodi:nodetypes="cccczczsscccscccssszczcssssszczzzss"
       inkscape:connector-curvature="0"
       id="path4254"
       d="m 70.020569,124.57658 c 0,0 0.0888,21.80746 -0.1149,35.65932 -0.2825,76.83712 -0.0435,123.8007 0.43682,204.08221 l 81.583261,-0.25 c 0,0 86.14777,-0.23155 93.05385,-0.2174 6.90608,0.0142 61.29785,0.2179 124.00135,0.2179 112.4833,0 109.39897,-0.24197 122.41642,-0.25767 13.01744,-0.0157 34.40128,0.16937 101.16008,0.20667 l 90.574,0.051 0,-54.59215 c 0,0 1.30166,-261.422349 1.51737,-272.998237 -20.32204,-0.31421 -84.42264,-0.796442 -307.82462,-0.925987 l -306.680811,-0.16521 0.0363,11.76529 -0.2186,45.687963 z m -8.69744,-80.566178 c -0.45804,-10.628661 0.32129,-14.84278 1.02197,-15.68705 0.86022,-1.0365 32.66424,-1.1534 313.806401,-1.1534 283.4124,0 311.81945,0.03269 313.6481,0.98636 1.82865,0.953665 1.5489,2.66259 1.5489,4.71883 -0.28502,11.784383 -0.12424,1.56749 -0.32468,15.790581 -0.20044,14.223091 0.32468,255.146087 0.32468,255.146087 0,65.2362 -0.023,66.2547 -1.494,67.7262 -1.4893,1.4893 -2.4827,1.494 -312.8073,1.483 -249.48834,-0.01 -311.684171,-0.1986 -313.180801,-0.9558 l 0,1e-4 c 0,0 -0.75131,-0.0221 -1.42557,-0.87841 -0.0346,-0.0439 -0.61872,-0.7513 -0.71957,-1.54234 -0.10085,-0.79104 -0.26579,-86.75521 -0.26579,-86.75521 0,0 -0.0694,-82.9042 0.0397,-109.92185 0.10905,-27.01765 -0.31466,-36.55256 -0.2233,-45.80405 0.0914,-9.2515 0.14304,-20.91211 0.24817,-34.433661 0.10513,-13.52155 -0.19688,-48.719387 -0.19687,-48.719387 z"
       style="display:inline;fill:#000000;fill-opacity:1;stroke:#000000;stroke-opacity:1" />
  </g>
  <g
     inkscape:groupmode="layer"
     id="layer2"
     inkscape:label="Filling"
     style="display:inline"
     transform="translate(-6.2803777,-21.355007)" />
  <g
     inkscape:label="Konturen"
     inkscape:groupmode="layer"
     id="layer1"
     style="display:inline"
     transform="translate(-6.2803777,-21.355007)">
    <path
       style="opacity:0;fill:#52acaf;fill-opacity:0.94117647;stroke:#4a5053;stroke-width:0.35355341;stroke-opacity:1"
       d="m 118.5985,371.86201 c -25.473519,-0.12952 -47.147641,-0.35831 -48.164712,-0.50844 -1.766145,-0.26069 -1.861443,-0.33034 -2.12132,-1.55035 -0.149656,-0.70257 -0.272101,-76.80172 -0.272101,-169.10921 0,-126.930267 0.100033,-167.931842 0.410467,-168.24227 0.824273,-0.824259 108.865876,-1.087399 365.340536,-0.889802 139.52101,0.107492 254.81686,0.289592 256.21301,0.404666 2.38355,0.196459 2.55951,0.269616 2.88344,1.198854 0.2244,0.643703 0.22178,10.489785 -0.007,28.167845 -0.22496,17.349117 -0.24487,58.440927 -0.055,113.622027 0.31392,91.2343 0.27209,178.98368 -0.0905,189.73618 l -0.21641,6.41874 -1.46562,0.2099 c -5.37786,0.77017 -445.58968,1.18686 -572.45441,0.54186 z m 531.77936,-3.36808 38.92588,-0.23522 0.21652,-72.52167 c 0.11907,-39.88692 0.45067,-103.54598 0.73691,-141.46459 0.2862,-37.9186 0.57077,-79.655915 0.63233,-92.749589 l 0.11197,-23.806679 -0.77563,-0.629095 C 689.57357,36.558043 688.42085,36.419839 682.978,36.218102 667.28868,35.636583 536.31333,35.314696 312.84633,35.308458 l -240.976413,-0.0067 -0.323785,87.416082 c -0.178081,48.07885 -0.244235,104.91698 -0.147008,126.30696 0.09723,21.38998 0.176777,57.02912 0.176777,79.19809 l 0,40.30723 269.938029,0.0995 c 148.46591,0.0547 287.45468,-0.006 308.86393,-0.13569 z"
       id="path4672"
       inkscape:connector-curvature="0" />
    <g
       id="g4962"
       transform="translate(9.1923885,-260.2153)" />
    <g
       id="g6596"
       transform="matrix(0.99991833,0.01278035,-0.01278035,0.99991833,16.057749,-360.60762)">
      <path
         sodipodi:nodetypes="csccccccccccc"
         inkscape:connector-curvature="0"
         id="path5010"
         d="m 6.3697989,447.05276 c -2.066919,-0.32693 -3.9333171,-1.39021 -4.1430491,-2.09116 -1.1624872,-3.88519 14.4558842,-28.33373 18.5610212,-31.56283 34.769035,-0.35837 53.532979,-0.39592 98.213689,0.0277 0.9379,0.51201 2.80255,2.29228 2.62303,2.91681 -7.8787,12.50706 -11.49399,18.84474 -18.67837,30.15439 -34.027594,0.17087 -65.119636,0.5575 -96.5763211,0.55509 z m 93.9643211,-5.82927 c 5.15223,-7.78686 9.88527,-15.10664 14.27412,-22.62569 -31.805023,-0.46141 -58.269089,-0.4091 -93.306243,-0.15158 -2.694913,6.23229 -10.047795,17.10151 -12.7396999,23.33584 0.077342,0.54282 0.7975914,0.38289 1.5267219,0.5575 32.594879,-0.36545 58.328746,-0.85063 90.245101,-1.11607 z"
         style="display:inline;opacity:1;fill:#000000;fill-opacity:1;fill-rule:nonzero" />
      <path
         sodipodi:nodetypes="cccccccccsscccccccccccssccccccccc"
         inkscape:connector-curvature="0"
         id="path5012"
         d="M 30.728388,549.63602 C 25.144421,543.81936 12.078859,529.03717 7.2282071,523.19714 l -1.2254448,-7.3586 c -0.3279802,-19.47443 -0.9959046,-43.34596 -0.169535,-61.82888 11.4472167,-0.83459 27.0332397,-1.61047 38.7264297,0.14381 1.026716,0.25097 1.201068,1.18431 1.406653,2.21239 1.180006,20.53884 1.248878,30.97173 1.84865,52.63578 0.202724,0.24642 38.407884,-2.29831 38.704265,-2.57192 0.138997,-8.96323 -0.291349,-16.09018 0.45235,-25.0973 0.419685,-1.02555 1.329281,-1.70404 3.562571,-2.06402 3.241908,-0.52255 14.972184,-1.2864 21.690074,-1.2867 4.8654,-1.8e-4 6.31188,0.4511 7.36088,1.09946 0.64488,0.39856 2.0072,2.62019 2.11071,2.95083 0.47773,20.38923 1.04656,32.17069 1.47885,52.9875 -2.25808,4.40055 -4.52921,8.2808 -6.92374,12.67592 -24.349243,0.76082 -53.665784,1.38359 -85.522532,1.94059 z m 83.280202,-6.756 c 1.16774,-2.71275 1.98814,-4.55997 3.35724,-7.03933 -0.16232,-8.82749 -0.70824,-49.04997 -1.04361,-52.70355 -8.83319,0.44383 -16.920544,0.70597 -24.547102,1.28194 l 0.179239,12.54269 0.116738,14.91769 -7.616851,0.12231 c -3.847427,0.0618 -12.526221,0.80741 -19.13767,1.18644 -6.611449,0.37903 -18.320521,0.8151 -20.596549,0.81627 l -1.200729,-1.623 c -0.951701,-21.99119 -1.419289,-37.34606 -2.093442,-53.75515 -11.010366,0.0165 -19.153034,0.0559 -31.127888,0.31766 0.468155,18.74005 0.769007,37.38634 1.37931,56.17598 0.367675,4.5521 1.222979,5.66484 2.409124,6.6457 6.261279,7.28849 10.856846,16.00912 17.973433,22.15793 34.579821,-0.41112 56.399679,-0.62341 81.948757,-1.04358 z"
         style="display:inline;opacity:1;fill:#000000;fill-opacity:1;fill-rule:nonzero" />
      <path
         sodipodi:nodetypes="ccssssssssscsssscsscsssssscscccssssssccsccssssscssssscccc"
         inkscape:connector-curvature="0"
         id="path5014"
         d="m 125.64375,550.96291 c 9.23973,-40.3615 20.50699,-82.96622 35.07888,-134.73153 0.1041,-0.1041 2.32652,-0.98724 3.08992,-1.0407 2.58974,-0.18134 34.57992,-1.35127 37.01272,-1.04731 1.84046,0.22995 3.00002,1.16235 4.14003,2.69517 1.78463,2.39957 6.84433,14.17865 21.99922,46.50897 7.38322,15.7508 18.30451,38.4666 23.94545,50.42555 10.46569,22.18755 13.01574,27.91106 13.40237,29.78688 0.20645,1.00163 -0.63505,2.16819 -2.37232,2.96365 -2.07062,0.9481 -5.76914,1.51795 -15.50055,2.52802 -10.61209,1.1015 -20.58022,1.93333 -24.65876,1.90888 l -3.35719,-0.0201 -3.54317,-8.52947 c -4.08722,-9.83917 -4.78569,-11.82524 -6.22784,-12.20237 -0.39735,-0.10391 -4.32226,-0.006 -9.91035,0.38019 -5.97904,0.41294 -12.57577,1.17456 -16.67516,0.95864 l -6.86854,-0.36176 -0.52712,-1.90104 c -0.7344,-2.64854 7.5591,-25.3514 8.38598,-27.21366 l 0.85641,-1.92877 6.27107,-0.22784 c 5.07746,-0.18447 6.51856,-0.2481 7.26606,-0.86429 0.28738,-0.2369 0.0714,-0.90706 -0.0645,-1.46994 -0.31998,-1.32478 -4.65576,-9.60067 -9.00857,-16.92873 -3.99096,-6.71889 -4.61392,-8.33294 -5.27465,-7.67222 -0.60482,0.60482 -1.25634,4.11034 -5.44566,24.00019 -9.08029,43.11091 -10.32128,51.9838 -13.83883,54.23487 -6.60626,0.62407 -19.37625,1.82048 -27.84543,1.95084 -10.02821,0.15435 -10.12848,-0.99202 -10.32946,-2.20209 z m 36.87888,-5.08353 c 3.90346,-19.26361 9.05201,-44.69581 12.93549,-63.00652 2.37731,-11.20906 3.55688,-17.50285 4.37109,-20.35683 0.51196,-1.79452 2.10869,-1.82104 2.36793,-1.66082 1.03924,0.64229 20.84135,35.64898 22.49811,39.7483 0.90186,2.23145 -0.29957,3.02736 -9.96297,4.10842 -3.69463,0.41333 -7.00157,0.96412 -7.40277,1.11595 -0.57952,0.21932 -1.14812,0.96997 -2.59541,5.70162 -2.84492,9.30094 -3.98205,12.96174 -3.85926,14.03111 0.10913,0.9503 0.5466,0.36994 2.76471,0.48333 1.26395,0.0646 4.93207,-0.12315 9.98788,-0.47127 5.05582,-0.34812 10.52231,-0.86062 12.84998,-0.86879 l 5.46955,0.11769 1.59713,3.18198 c 0.74739,1.48902 3.01826,5.31391 4.91725,8.94589 1.89898,3.63198 2.68097,5.93114 3.25015,6.62166 1.00783,1.22267 1.57364,2.48838 3.53436,2.31891 1.10734,-0.0957 5.43398,-0.32905 9.61475,-0.62657 13.28182,-0.94519 22.1418,-1.89991 22.85991,-2.28423 0.38257,-0.20476 0.5188,-1.18797 0.5188,-1.48273 0,-1.99162 -20.442,-45.15017 -38.89374,-83.01038 -2.17971,-4.47246 -5.64637,-11.95895 -7.48762,-16.04249 -4.65295,-10.31938 -9.30639,-19.22666 -10.48,-20.61607 -1.40801,-1.6669 -1.59991,-1.45555 -18.92091,-1.71145 -14.8575,-0.21951 -17.31533,-0.34015 -18.37675,0.46591 -9.02594,35.58296 -19.97254,75.95611 -32.34997,126.91913 15.16611,0.0167 26.57413,-1.16715 30.79231,-1.62175 z"
         style="display:inline;opacity:1;fill:#000000;fill-opacity:1;fill-rule:nonzero" />
      <path
         sodipodi:nodetypes="csssscsssssscccszccccsscc"
         inkscape:connector-curvature="0"
         id="path5018"
         d="m 258.06099,431.06581 c -1.35542,-9.48148 -2.17928,-11.66692 -0.69235,-14.59157 0.46041,-0.90559 2.57058,-2.06599 4.82983,-2.51546 2.12306,-0.42239 14.88299,-0.56491 41.74521,-1.25531 45.53896,-1.17041 94.25478,-2.63341 100.72494,-3.00901 5.59065,-0.32455 8.33454,-0.37403 8.7966,0.01 0.49977,0.41476 0.725,2.4168 0.51802,9.7769 -0.30386,10.80494 -0.82675,17.37897 -1.42954,17.98176 -0.35818,0.35818 -3.11276,0.7091 -12.2632,0.97347 -6.60648,0.19087 -15.12551,0.40216 -17.55619,0.50773 -22.2521,0.96642 -34.68032,1.63138 -72.70202,3.61641 -24.06933,1.25661 -43.83328,2.40975 -44.95114,2.40975 -1.21466,0 -4.11185,-0.49007 -4.55466,-0.80023 -2.12224,-6.73561 -1.57119,-6.78358 -2.4655,-13.10394 z m 91.48127,4.42222 c 50.89426,-2.62679 57.52504,-2.82918 58.18845,-3.49258 0.66005,-0.66005 1.71383,-8.15739 1.84057,-10.90285 0.12674,-2.74546 0.0625,-6.23721 0.0625,-6.23721 -4.58614,-0.42632 -10.17646,0.26412 -13.90286,0.38195 -5.05581,0.19057 -28.20762,0.65473 -52.70887,1.33702 -27.58825,1.09107 -53.99361,1.24511 -81.22261,2.36541 l 0.1875,2.52107 c 0.39156,5.26474 1.43498,17.10101 2.14726,17.95925 0.56202,0.67719 2.31354,0.26304 27.93913,-1.11601 13.34195,-0.72419 43.79687,-2.10979 57.46893,-2.81605 z"
         style="display:inline;opacity:1;fill:#000000;fill-opacity:1;fill-rule:nonzero" />
      <path
         sodipodi:nodetypes="sssszcsszsscsssccssscczc"
         inkscape:connector-curvature="0"
         id="path5016"
         d="m 269.68744,546.27704 c -0.58583,-0.0134 -2.94444,-1.46754 -3.11073,-2.14698 -0.74525,-3.04498 -2.4593,-37.1094 -3.58029,-63.67605 -0.46546,-11.03099 -0.81238,-29.81968 -0.59893,-30.09508 0.55162,-0.71172 28.83285,-3.26706 37.98142,-3.52565 9.14856,-0.25859 8.97311,0.12729 11.14182,0.91908 l 0.21558,10.10575 c 0.59289,27.79213 1.54312,70.52775 1.58185,82.42568 0.006,1.94667 -0.33137,1.97128 -0.86143,2.59328 -0.53006,0.622 -3.15994,2.00532 -12.80088,2.76531 -11.04767,0.87089 -19.88963,0.86542 -29.96841,0.63466 z m 25.55143,-5.59195 c 5.35444,-0.28994 10.91936,-0.99514 11.72191,-1.23922 0.43067,-0.13098 0.87972,-1.95277 0.93603,-4.02868 0.1313,-4.83991 -1.17612,-69.85618 -0.84101,-80.01913 l 0.11749,-3.56314 c -11.16925,0.6149 -27.76613,1.40299 -38.68308,2.76155 -0.57993,0.35842 -0.9098,1.70047 -0.58026,7.57877 0.19065,3.40091 1.05097,18.90899 1.73669,34.46534 1.33211,30.22036 1.76911,38.89012 2.63257,42.29224 l 0.51501,2.02924 7.34858,0.0505 c 4.52688,-0.13052 8.11673,-0.0168 13.47117,-0.3067 z"
         style="display:inline;opacity:1;fill:#000000;fill-opacity:1;fill-rule:nonzero" />
      <path
         sodipodi:nodetypes="sssssscssscssszscssssssssccz"
         inkscape:connector-curvature="0"
         id="path5020"
         d="m 316.50049,543.42703 c -0.97719,-0.43253 -0.80278,-2.59674 -1.48411,-29.07945 -0.29016,-11.27835 -0.62142,-26.42401 -0.81252,-33.61882 -0.50131,-18.87384 -0.43198,-32.2305 0.12925,-32.99802 0.55533,-0.75947 2.4559,-0.77601 15.25391,-1.23068 5.44472,-0.19343 12.52463,-0.58758 15.73313,-0.87589 3.2085,-0.2883 7.84427,-0.7449 9.61422,-0.7473 3.84455,-0.005 5.56482,1.30332 6.80852,3.83437 1.09001,2.21828 1.24489,6.84047 2.29033,40.5653 0.48223,15.55635 1.02899,29.68492 1.13863,31.43501 0.10963,1.75008 0.32695,6.71359 0.33015,10.87723 0.004,5.81897 -0.44403,8.32666 -0.79652,8.55566 -1.0788,0.70084 -5.84202,1.93024 -8.82378,2.25175 -8.76945,0.94556 -37.91203,1.68113 -39.38121,1.03084 z m 24.04608,-4.66642 c 7.92578,-0.28244 12.80724,0.28899 17.22014,-1.19898 l 2.5676,-0.86576 -0.11411,-7.84082 c -0.4618,-31.73153 -2.09454,-72.5172 -2.21985,-75.9189 -0.0781,-2.1206 0.3763,-2.76172 -0.2313,-3.0869 -0.54415,-0.29122 -2.20692,-0.34717 -7.83511,-0.0375 -4.19584,0.23084 -12.82157,0.72678 -19.39745,0.98752 -6.57589,0.26073 -11.60932,0.18973 -11.72012,0.30053 -0.21795,0.21795 0.28292,27.37997 1.1029,58.2463 0.50231,18.9085 0.68003,23.28615 0.97901,28.06996 l 0.14134,2.26149 1.65238,0.0605 c 4.18275,-0.49959 9.92879,-0.695 17.85457,-0.97744 z"
         style="display:inline;opacity:1;fill:#000000;fill-opacity:1;fill-rule:nonzero" />
      <path
         sodipodi:nodetypes="ssssssssssccsscsssssssscsscc"
         inkscape:connector-curvature="0"
         id="path5022"
         d="m 376.784,541.82684 c -2.52091,-0.0498 -7.73344,-0.59733 -8.37468,-0.71763 -2.4463,-0.45893 -1.62682,1.06944 -3.39405,-57.24638 -0.78504,-25.90511 -0.77015,-36.54685 -0.2294,-37.55725 0.52696,-0.98465 2.84829,-1.92836 5.4192,-2.3313 2.61161,-0.40932 26.01673,-1.77419 32.79227,-1.89838 5.26427,-0.0965 7.2087,0.17715 7.76243,2.16178 0.53337,1.91166 1.5994,11.36604 2.01227,19.3291 0.33735,6.50655 1.09563,11.54026 2.05421,47.39995 0.21571,8.06985 -0.32458,17.30644 -0.16477,20.41771 0.27027,5.26179 0.912,6.31356 0.61653,7.51398 -0.66362,0.884 -1.58937,1.68392 -2.70697,1.97044 -2.0606,0.5155 -19.50478,1.27985 -26.28207,1.14588 z m 31.37426,-7.20385 0.78037,-1.42864 -0.07,-3.40182 c -0.68387,-33.2412 -1.5576,-82.11523 -2.09274,-82.9811 -0.30265,-0.4897 -2.7899,-0.59722 -10.49136,0.004 -3.59741,0.28098 -9.63467,0.57227 -13.91267,0.68549 -4.27799,0.11322 -9.48428,0.29267 -10.88202,0.39878 -2.41159,0.18307 -2.23958,-0.10195 -2.43913,0.80662 -0.11566,0.52659 0.19145,8.56267 0.49146,18.27808 0.30003,9.71541 1.21633,29.2957 1.50151,43.51176 0.28518,14.21606 0.97079,24.88022 1.10345,25.22591 0.22832,0.595 0.32964,1.02299 17.42963,0.81403 9.9349,-0.12141 14.72728,-0.52304 15.59122,-0.72608 z"
         style="display:inline;opacity:1;fill:#000000;fill-opacity:1;fill-rule:nonzero" />
      <path
         sodipodi:nodetypes="zssscscscssczzssssccssssszz"
         inkscape:connector-curvature="0"
         id="path5024"
         d="m 435.52804,542.79442 c -4.73657,-0.37897 -7.32907,-0.84205 -10.40508,-2.4543 -3.07777,-1.61316 -2.69199,-2.27793 -2.92822,-8.55612 -0.21958,-5.83579 -0.82083,-47.30205 -1.50649,-93.46383 -0.30298,-20.39748 -0.48505,-26.96115 -0.1641,-27.56081 0.22985,-0.42948 1.42499,-1.6133 2.23573,-1.9814 1.30877,-0.59423 3.10478,-0.85712 10.32456,-0.85975 9.58963,-0.003 21.7267,0.63507 23.29023,1.15109 0.60789,0.20062 2.02926,1.37438 2.20375,1.80628 0.18547,0.45906 0.21257,26.71725 0.10923,62.99014 -0.14696,51.58387 -0.22711,62.47894 -0.62927,63.21376 -0.99257,1.8136 -2.71033,4.05203 -4.4334,4.56373 -5.81192,1.43848 -13.36037,1.53018 -18.09694,1.15121 z m 18.16511,-7.48293 c 0.13292,-0.94872 -0.0152,-26.93689 -0.0152,-26.93689 -0.0305,-15.45595 -0.23864,-42.90663 -0.35891,-61.24117 -0.18214,-27.7658 0.0437,-33.0108 -0.36214,-33.26142 -0.26797,-0.16549 -2.16316,-0.30924 -3.1039,-0.43404 -2.80212,-0.37171 -20.30759,-1.23299 -23.32496,-1.2392 l -1.97982,0.1815 0.0249,8.8111 c 0.0152,5.39735 0.79831,21.14124 1.0943,35.14196 0.29598,14.00071 0.54733,33.28294 0.74951,42.81121 0.40591,19.1293 0.88963,36.16645 1.16873,37.4321 0.2382,1.08023 2.13281,0.96948 5.28191,1.31149 2.90861,0.3159 15.6131,-0.0248 17.63157,-0.33166 2.01847,-0.30689 3.06116,-1.29626 3.19408,-2.24498 z"
         style="display:inline;opacity:1;fill:#000000;fill-opacity:1;fill-rule:nonzero" />
      <path
         sodipodi:nodetypes="ssssssssssccsssscscczzscssssssscsssssczssscc"
         inkscape:connector-curvature="0"
         id="path5026"
         d="m 467.86571,539.68018 c -1.26451,-1.82369 -0.82256,-2.16797 -1.06406,-7.02687 -0.30494,-6.13544 -0.82265,-32.5215 -1.38437,-70.63163 -0.39499,-26.79818 -0.84719,-41.91507 -1.45001,-48.47378 -0.43752,-4.76027 0.11,-6.08904 1.81687,-6.97169 0.55246,-0.28569 4.15841,-1.15002 7.14897,-1.65066 7.67133,-1.28423 21.49006,-3.83127 23.63605,-4.38794 1.76691,-0.45833 3.02692,-0.88867 5.07917,0.78067 0.74745,0.608 4.63982,3.95974 8.57672,7.59733 3.9369,3.63759 12.49279,10.89826 19.20507,17.25691 l 12.25862,11.61279 0.5675,6.19172 c 0.003,2.9242 0.25758,11.20339 0.53669,18.3982 0.87277,22.49748 1.26713,29.48969 0.86771,30.50352 -0.23762,0.60315 -2.40103,1.74596 -3.19567,2.00821 -2.19438,0.72422 -4.4528,-0.68592 -20.46372,-14.39761 -11.76768,-10.07781 -16.56755,-14.18083 -16.56755,-14.18083 0,0 -0.34314,-0.14522 2.30317,56.83775 0.57565,12.39569 0.66429,13.66751 0.0924,14.53989 -0.60396,0.92175 -1.19194,1.76373 -6.03319,1.76709 -2.66926,0.002 -7.59906,-0.0828 -12.4546,0.34818 -4.85554,0.43102 -18.21126,1.70244 -19.47576,-0.12125 z m 18.86324,-5.06895 c 8.73954,-0.64568 12.56966,-0.87281 13.07109,-1.37828 0.52248,-0.5267 0.26426,-15.20572 -0.57926,-40.08738 -0.88918,-26.22886 -0.72894,-32.50112 0.0328,-33.26285 0.30557,-0.30557 1.80772,-1.36808 2.03949,-1.36808 0.91469,0 4.85307,2.84177 15.87549,12.31838 12.64241,10.86941 18.30787,16.07924 20.05602,17.02164 2.0108,1.08398 1.49343,0.33035 1.00644,-9.3177 -0.23805,-4.7161 -0.70433,-13.70453 -1.08315,-22.74665 l -0.41475,-15.52105 -1.80259,-1.77849 c -0.92311,-0.91077 -5.15436,-4.77511 -9.40375,-8.66682 -11.83888,-10.84238 -24.18912,-21.53984 -26.96584,-23.91957 -0.65799,-0.56392 -2.2956,-0.33239 -5.96032,0.29413 -5.37829,0.91946 -14.75818,2.95501 -18.71566,3.88101 l -3.63755,0.85114 c 0,0 -0.51615,20.49832 -0.1404,42.94075 0.37575,22.44243 1.70715,71.47899 2.04796,76.80792 0.25548,3.99463 1.28327,4.57808 1.83745,5.00008 0.7423,0.56525 -0.0188,-0.1258 12.73656,-1.06818 z"
         style="display:inline;opacity:1;fill:#000000;fill-opacity:1;fill-rule:nonzero" />
      <path
         sodipodi:nodetypes="ssssssscsssssssscsscsscssss"
         inkscape:connector-curvature="0"
         id="path5034"
         d="m 554.54729,540.4383 c -1.89477,-0.33921 -3.60355,-1.04082 -4.21776,-2.4182 -0.46835,-1.05031 -0.7932,-2.92793 -0.97005,-10.70814 -0.22137,-9.73837 -0.46921,-12.70004 -1.98609,-47.625 -2.56589,-59.07763 -2.78247,-70.09609 -2.63067,-74.53112 0.11288,-3.29776 0.65593,-4.18201 2.75232,-4.57959 2.37563,-0.45053 14.35298,-1.10377 28.52842,-1.14855 14.61363,-0.0462 15.79701,-0.0437 16.3946,1.07285 0.82582,1.54307 1.11505,17.70196 1.83155,66.2748 0.40832,27.68141 0.91105,65.77687 0.74967,66.95751 -0.12151,0.88893 -0.57447,1.89639 -1.31535,2.38668 -2.14534,1.41972 -6.04584,2.59587 -13.71094,3.18191 -2.75,0.21026 -7.39867,0.60141 -10.49242,0.86924 -7.10174,0.6148 -13.19501,0.57881 -14.93328,0.26761 z m 9.88908,-5.40263 c 2.54375,-0.2656 7.19248,-0.53269 12.00498,-1.02567 10.40687,-1.06605 13.19989,-1.26145 13.50754,-1.69759 0.26503,-0.37573 -0.15297,-33.51507 -0.51694,-50.08125 -0.1314,-5.98125 -0.24662,-23.10134 -0.52612,-37.8826 -0.56157,-29.69844 -0.49594,-37.93569 -0.8806,-38.94041 -0.21194,-0.55356 -0.89638,-1.11063 -1.8988,-1.11639 -3.01835,-0.0173 -24.82379,0.27846 -28.96626,0.54399 l -6.86266,0.4399 -0.25558,5.14316 c -0.33125,6.66599 0.18298,13.60431 1.63236,48.48154 2.33658,56.22604 3.15007,74.84876 3.49566,76.24069 0.31615,1.27334 0.53327,0.80647 9.26642,-0.10537 z"
         style="display:inline;opacity:1;fill:#000000;fill-opacity:1;fill-rule:nonzero" />
      <path
         sodipodi:nodetypes="sscssscsssssssssscsss"
         inkscape:connector-curvature="0"
         id="path5032"
         d="m 601.30078,424.80029 c 0.23546,-1.69236 5.88421,-17.35704 9.21295,-24.41536 3.29352,-6.98364 3.3104,-7.67267 4.83955,-8.09897 0.7127,-0.19868 7.87849,-1.08984 14.58716,-1.29286 12.61721,-0.38182 71.98495,-0.90521 75.42208,-0.68309 1.86359,0.12043 2.5065,0.6711 3.93286,2.43638 0.81858,1.01308 2.24812,2.89306 2.37468,3.22288 0.27412,0.71433 -3.71977,7.4728 -10.88801,18.13612 -5.92558,8.81479 -6.43941,9.0636 -7.82863,9.46202 -2.64598,0.75886 -41.25913,1.80729 -71.7527,2.59047 -18.36382,0.47165 -20.21244,0.88845 -19.89994,-1.35759 z m 45.44417,-4.2121 c 14.48685,-0.48256 30.09484,-1.10188 34.91359,-1.29988 4.81875,-0.19801 8.82237,-0.36001 9.2025,-0.36001 0.5018,0 1.7254,-1.56715 4.46618,-5.72012 5.1104,-7.74353 10.55384,-16.89925 10.39624,-17.37802 -0.30755,-0.93432 -4.46111,-0.84427 -33.43963,-0.4351 -26.56542,0.37509 -54.51527,1.20171 -54.80248,1.45246 0,0 -1.44456,3.35431 -3.4612,8.02724 -3.93485,9.1178 -6.54903,15.12795 -6.54903,16.23251 0,1.25185 -2.82596,0.88327 39.27383,-0.51908 z"
         style="display:inline;opacity:1;fill:#000000;fill-opacity:1;fill-rule:nonzero" />
      <path
         sodipodi:nodetypes="ssssscsssssscsssssscssssccsssscsssssssssscsscsscssczc"
         inkscape:connector-curvature="0"
         id="path5030"
         d="m 641.76115,547.53329 c -2.96639,-2.1745 -5.63114,-4.58212 -12.38321,-10.29349 -6.64958,-5.62468 -11.07507,-9.40014 -16.33674,-13.12063 -4.55247,-3.21903 -4.91766,-2.08553 -5.27345,-7.92784 -1.16073,-19.0599 -3.06194,-64.99027 -3.18734,-77.4343 -0.0501,-4.97534 0.4159,-7.29724 0.76683,-7.51411 1.28746,-0.79569 12.58422,-2.19395 26.13788,-2.81682 11.49494,-0.52826 15.28531,-0.20056 15.81206,2.4332 0.11313,0.56564 0.33435,8.29649 0.14793,16.03383 -0.18645,7.73734 -0.66399,24.03761 -0.67926,36.22282 -0.031,24.7683 0.22821,23.01206 2.71319,23.83218 0.84338,0.27834 2.91803,0.41665 7.07093,0.39427 6.66882,-0.0359 29.30464,-1.12984 29.56851,-1.39171 0.0833,-0.0827 -0.33209,-8.00116 -0.8849,-18.74248 -0.55282,-10.74132 -0.70773,-20.2976 -0.57342,-21.007 0.17623,-0.93081 0.18336,-2.18889 0.75484,-2.33232 3.86916,-0.9711 30.03274,-1.68244 32.39877,-0.84294 2.19169,0.77764 3.30875,0.9121 3.6812,5.95099 0.66379,8.98057 2.34887,41.30218 3.23899,64.91158 l 0.23859,6.32833 -0.30198,1.169 c -0.81701,3.16275 -10.55006,2.86626 -39.87665,5.05509 -24.75278,1.84746 -35.10037,2.62924 -37.53921,2.97392 -1.28861,0.18211 -3.42515,-0.36535 -5.49356,-1.88157 z m 39.49154,-6.29053 c 19.25725,-1.48643 37.38772,-2.60386 38.22354,-2.90451 0.52332,-0.18825 0.54356,1.37129 -0.67151,-26.11199 -0.76108,-17.2145 -1.90317,-32.09839 -2.42238,-38.77011 -0.40257,-5.17298 -0.24941,-6.05768 -2.16158,-6.29799 -1.47918,-0.1859 -18.66099,0.67003 -21.43617,0.65604 l -3.43487,-0.0173 -0.0869,2.6081 c -0.053,1.59185 0.20183,5.72758 0.40195,9.61666 0.58781,11.42288 1.45557,24.33669 1.65891,25.57053 0.36861,2.23672 -2.11147,4.4535 -5.62533,5.02548 -1.26395,0.20574 -8.88651,0.70741 -17.05359,1.00022 -8.16709,0.29282 -16.26409,0.72037 -17.91695,0.91191 -5.08243,0.589 -6.66233,0.50819 -7.25258,-0.63323 -0.84307,-1.63032 -1.70249,-7.06031 -2.0809,-18.074 -0.36057,-10.49486 0.0398,-19.8991 1.02095,-47.56526 0.23791,-6.70867 0.4542,-11.58044 0.26434,-12.13258 l -0.41822,-1.21624 -13.95533,0.41882 c -10.20046,0.30613 -13.72976,0.63088 -16.71321,0.87884 l -1.84857,0.15364 0.0208,11.52703 c 0.0209,11.60745 2.50196,59.39341 2.76296,66.58853 l 0.1071,2.95251 3.48065,3.55639 c 2.96117,3.0256 25.85574,22.3837 28.13481,23.94182 0.59025,0.40354 1.65151,1.12889 3.13767,1.12889 12.11343,-0.61198 14.60718,-1.32576 33.86443,-2.81219 z"
         style="display:inline;opacity:1;fill:#000000;fill-opacity:1;fill-rule:nonzero" />
      <path
         sodipodi:nodetypes="cccscc"
         inkscape:connector-curvature="0"
         id="path4139"
         d="m 22.384339,418.43431 c 31.296421,-0.002 60.857847,-0.22648 91.489861,0.375 -4.6059,7.28712 -8.99945,15.00354 -14.173186,21.87501 -18.918519,0.46447 -45.158237,0.74329 -61.908681,0.85556 -12.545535,0.0841 -18.472086,0.70736 -29.0745488,0.17037 5.1936098,-7.95868 9.1831498,-15.95904 13.6665548,-23.27594 z"
         style="display:inline;fill:url(#linearGradient4379);fill-opacity:1;stroke:none;stroke-opacity:1" />
      <path
         sodipodi:nodetypes="cccccccccccc"
         inkscape:connector-curvature="0"
         id="path4141"
         d="M 32.69272,544.08606 C 25.265288,535.64113 17.854567,526.66692 12.102866,519.27588 11.104848,501.1616 10.993126,480.90317 10.41952,459.2579 c 9.9403,-0.15445 20.802141,-0.306 30.733054,-0.64632 1.231396,14.33666 0.901986,42.53849 1.723568,54.37618 0.305295,0.71379 1.303481,1.08347 2.044132,1.41027 14.37156,0.29045 32.271172,-2.10542 47.14577,-1.47786 0.35776,-10.06136 -0.60634,-18.908 0.19728,-28.38334 7.26961,-0.36132 16.500676,-1.23469 23.578376,-0.84367 0.71361,18.31191 1.2975,39.74655 1.47614,52.46875 -2.15511,2.75428 -3.97692,6.3687 -5.13005,6.50955 -24.931049,0.81616 -56.752663,0.96091 -79.49507,1.4146 z"
         style="display:inline;fill:url(#linearGradient4381);fill-opacity:1;stroke:none;stroke-opacity:1" />
      <path
         sodipodi:nodetypes="ccccccccccccc"
         inkscape:connector-curvature="0"
         id="path4143"
         d="m 131.60336,547.16383 c 8.69969,-34.79014 22.49453,-90.41502 33.0702,-126.63278 11.93431,-8.6e-4 24.97742,0.30265 36.27707,0.64342 19.288,40.0424 38.8625,80.32199 57.20241,121.35466 -11.04083,1.44618 -23.26578,2.16683 -34.98527,2.8568 -3.59499,-7.43427 -6.79114,-12.95383 -11.1396,-20.76424 -10.62,0.21221 -20.56121,1.34591 -31.22087,0.92397 1.74818,-5.16023 3.8085,-15.29424 5.87483,-19.11368 7.18929,-2.56686 12.61907,-0.44142 18.73992,-3.85022 -2.39201,-8.15005 -18.94263,-37.78527 -22.94106,-41.51673 -2.25152,-1.10348 -2.1971,0.20753 -2.5534,1.48343 -6.38549,30.29622 -10.55507,50.00539 -17.77024,83.22172 -2.7287,0.3811 -24.46467,2.48991 -30.55399,1.39365 z"
         style="display:inline;fill:url(#linearGradient4377);fill-opacity:1;stroke:none;stroke-opacity:1" />
      <path
         sodipodi:nodetypes="ccccc"
         inkscape:connector-curvature="0"
         id="path4145"
         d="m 272.04209,540.62054 c -1.86544,-22.51223 -4.08354,-71.93253 -3.99548,-85.60232 11.61646,-1.72469 27.60051,-2.6366 38.35039,-3.1978 0.81238,28.74878 1.71638,66.01878 1.03527,87.3272 -6.04231,1.416 -27.79655,2.8467 -35.39018,1.47292 z"
         style="display:inline;fill:url(#linearGradient4375);fill-opacity:1;stroke:none;stroke-opacity:1" />
      <path
         sodipodi:nodetypes="ccccc"
         inkscape:connector-curvature="0"
         id="path4147"
         d="m 318.53075,451.25935 c 13.43544,-0.42777 37.16653,-1.52331 38.86367,-1.22077 0.63473,3.75542 1.95501,57.01469 2.36691,86.89955 -13.65678,1.52739 -28.58889,2.06791 -38.47478,2.31183 -1.36839,-30.74957 -1.3347,-62.19943 -2.7558,-87.99061 z"
         style="display:inline;fill:url(#linearGradient4371);fill-opacity:1;stroke:none;stroke-opacity:1" />
      <path
         sodipodi:nodetypes="cccccc"
         inkscape:connector-curvature="0"
         id="path4151"
         d="m 264.63964,439.64279 c -1.43442,-4.18588 -2.925,-14.84922 -2.34054,-20.45977 49.59825,-1.50302 101.74598,-2.88076 147.51166,-4.51083 -0.053,5.31877 -0.95907,11.70613 -1.895,17.02639 -42.05134,3.19433 -87.28734,5.03678 -143.27616,7.94421 z"
         style="display:inline;fill:url(#linearGradient4373);fill-opacity:1;stroke:none;stroke-opacity:1" />
      <path
         sodipodi:nodetypes="ccccc"
         inkscape:connector-curvature="0"
         id="path4153"
         d="m 371.74397,536.42154 c -0.64526,-31.96353 -1.55565,-56.58943 -2.35211,-87.74818 11.80914,-1.11972 25.99971,-1.8261 36.83763,-2.10794 1.13627,7.3906 2.52975,73.80526 2.48717,88.75893 -16.07155,1.54276 -17.85125,1.44878 -36.97269,1.09719 z"
         style="display:inline;fill:url(#linearGradient4369);fill-opacity:1;stroke:none;stroke-opacity:1" />
      <path
         sodipodi:nodetypes="ccccc"
         inkscape:connector-curvature="0"
         id="path4155"
         d="m 428.21888,537.15799 c -2.58367,-36.25377 -1.74023,-88.8937 -3.43523,-124.93246 9.2306,0.52761 20.00591,1.2826 27.94221,2.00081 0.16621,40.62807 0.85975,84.644 0.73614,122.03887 -0.26256,2.91093 -21.26501,2.30572 -25.24312,0.89278 z"
         style="display:inline;fill:url(#linearGradient4367);fill-opacity:1;stroke:none;stroke-opacity:1" />
      <path
         sodipodi:nodetypes="ccccccccc"
         inkscape:connector-curvature="0"
         id="path4157"
         d="m 472.68019,535.29968 c -1.62374,-40.21877 -2.52537,-85.06763 -3.06395,-124.07818 9.66417,-1.61037 18.73729,-3.94059 28.53378,-5.39959 9.84241,8.1406 30.54073,26.50571 38.2853,35.44293 0.48162,15.28557 1.06407,31.71899 1.90376,47.21981 -11.973,-9.44445 -26.52637,-22.15873 -36.3727,-29.93924 -1.58281,-0.81573 -2.53882,0.86539 -3.62676,1.95333 -0.0869,20.57637 1.23569,52.01887 1.30325,72.32952 -0.2854,1.45531 -22.43018,2.35215 -26.96268,2.47142 z"
         style="display:inline;fill:url(#linearGradient4365);fill-opacity:1;stroke:none;stroke-opacity:1" />
      <path
         sodipodi:nodetypes="ccccc"
         inkscape:connector-curvature="0"
         id="path4159"
         d="m 555.20706,534.99714 c -2.34473,-45.35269 -4.19081,-87.85582 -4.97079,-129.51931 3.47387,-1.00661 25.80025,-1.51713 37.34451,-0.57438 1.34985,42.3033 1.46742,88.35826 2.35373,127.42959 -0.67451,0.74273 -33.49872,4.28202 -34.72745,2.6641 z"
         style="display:inline;fill:url(#linearGradient4363);fill-opacity:1;stroke:none;stroke-opacity:1" />
      <path
         sodipodi:nodetypes="cccscscccccc"
         inkscape:connector-curvature="0"
         id="path4161"
         d="m 613.11828,515.42555 c -0.33532,-2.0843 -2.64661,-56.02912 -3.29602,-80.5842 6.84037,-1.05888 25.82877,-1.93492 32.71756,-1.90131 -0.32148,14.92551 -1.97251,44.85302 -1.26032,63.5895 0.34258,9.01286 0.7937,15.53153 2.91359,16.60132 3.57898,-0.19548 10.92058,-0.65035 22.20684,-1.13553 17.38728,-0.74745 25.78529,-0.96006 25.53473,-3.90783 -1.62313,-13.46708 -2.56286,-28.4287 -2.89433,-39.63652 8.93084,-0.33975 19.4761,-0.57425 26.40434,-0.9224 1.56212,22.64697 2.67678,49.91215 4.4608,70.67066 -24.41104,1.91692 -52.84893,3.9585 -74.55053,5.35554 -9.04704,-7.33757 -22.98677,-19.41047 -32.23666,-28.12923 z"
         style="display:inline;fill:url(#linearGradient4361);fill-opacity:1;stroke:none;stroke-opacity:1" />
      <path
         sodipodi:nodetypes="ccccc"
         inkscape:connector-curvature="0"
         id="path4163"
         d="m 618.06384,396.80273 c 4.74932,-0.28867 85.75639,-2.17415 87.27944,-0.99486 -3.00107,5.97598 -8.97147,15.48125 -14.61557,22.54101 -26.6619,1.23003 -60.56929,2.98911 -83.0949,2.57039 2.73381,-7.91052 7.01849,-16.95601 10.43103,-24.11654 z"
         style="display:inline;fill:url(#linearGradient4359);fill-opacity:1;stroke:none;stroke-opacity:1" />
      <g
         id="g5048">
        <g
           id="g4991">
          <path
             style="display:inline;fill:#000000;fill-opacity:1"
             d="m 68.250156,506.87893 c 14.422392,-0.4404 16.892582,-0.7807 17.072612,-1.6252 0.18003,-0.84448 0.32874,-6.95824 0.22488,-13.42593 -0.17263,-10.75081 -0.069,-11.84706 1.20836,-12.78107 0.76845,-0.56191 2.089266,-1.0316 2.935156,-1.04376 0.84589,-0.0122 7.57195,-0.32757 14.946806,-0.7009 11.86339,-0.60056 13.64718,-0.538 15.47687,0.54283 1.13742,0.6719 1.86342,1.85748 2.09946,2.4726 0.23604,0.61512 1.03379,13.31344 1.28662,28.38053 l 0.4597,27.3947 -3.16351,5.8885 c -1.73994,3.2387 -3.4443,6.1782 -3.78746,6.5323 -0.34317,0.354 -13.17527,0.7945 -28.515776,0.979 -15.340508,0.1845 -28.312018,0.4726 -34.04472,0.8317 0,0 -22.530947,0.571 -23.641109,0.4254 -1.110163,-0.1456 -1.576546,-0.3009 -2.202328,-0.7071 -0.625782,-0.4063 -1.442523,-1.6123 -1.442523,-1.6123 0.692523,0.792 -11.408794,-12.8855 -12.346722,-13.9485 -0.656466,-0.744 -8.9186788,-10.8266 -8.9186788,-10.8266 -0.63036,-1.1557 -1.94267,-38.31446 -1.949166,-56.29435 -0.0034,-9.48053 0.256682,-13.54042 0.909311,-14.19305 0.673999,-0.674 6.0232198,-0.91411 20.3648218,-0.91411 19.17411,0 19.469751,0.0235 20.789465,1.65329 1.188358,1.46756 1.39282,4.02705 1.820049,22.78358 0.538532,23.64306 0.95984,30.51784 1.234567,30.77414 0.274727,0.2562 19.183315,-0.5857 19.183315,-0.5857 z M 27.547165,448.34667 c -25.7360138,0.19264 -26.3318378,0.0952 -26.3318378,-4.30714 0,-1.89512 2.246308,-6.49092 8.658626,-17.71502 4.7622448,-8.33582 7.6788428,-12.31091 10.5798858,-13.60678 2.901044,-1.29588 5.770148,-0.69572 26.415977,-0.78231 2.473963,0.0487 5.820349,-0.0878 8.185022,-0.0749 l 6.213031,0.0592 27.990515,0.15133 c 25.918726,0.12023 30.400726,0.3196 31.934346,1.32447 0.98121,0.64291 1.78401,1.83224 1.78401,2.64295 0,0.81072 -2.35064,5.24123 -5.22364,9.84559 -2.87301,4.60436 -5.28064,8.6447 -6.34857,10.43655 -1.06793,1.79186 -3.10234,4.87336 -4.61916,7.10118 l -2.85719,4.2407 -35.762739,0.18256 z m 98.679265,105.02336 c -2.38198,-3.0005 -2.84971,-0.8731 17.30452,-78.70632 2.3405,-9.03873 6.72303,-25.99943 9.73894,-37.69045 4.43382,-17.18742 5.7978,-21.49347 7.12542,-22.4949 1.40165,-1.05727 4.60188,-1.52624 21.88955,-1.63579 0,0 19.9603,-0.71224 21.54227,0.22721 2.12288,1.26068 8.51966,15.74265 11.26242,21.6288 10.33563,22.14359 24.20662,51.65562 30.01904,63.86872 2.34637,4.93021 6.2169,13.16593 8.60116,18.30153 8.23828,17.745 11.1249,23.5263 11.18943,22.4101 0.0356,-0.6163 -0.85508,-20.8747 -1.97933,-45.01875 -1.80537,-38.77142 -1.91489,-44.02747 -0.93773,-45.00463 1.93379,-1.9338 45.70958,-4.41294 49.29635,-2.8466 0.78362,0.34221 1.5605,0.50561 3.23585,-0.18618 1.67535,-0.69179 3.52347,-0.57541 7.1555,-0.65914 2.73383,-0.063 8.56273,-0.0648 13.0821,-0.45141 4.51936,-0.3866 11.94306,-0.91627 16.49711,-1.17705 0,0 5.63902,-0.64178 7.37383,0.0571 1.73481,0.69887 2.89714,1.61585 2.89714,1.61585 1.09499,1.1809 2.14489,3.15912 2.3331,4.39606 0.18822,1.23693 0.90915,22.0214 1.60207,46.18768 1.08514,37.84508 1.11355,44.08508 0.20482,44.99378 -1.88316,1.8831 -13.33488,3.262 -31.0536,3.739 -16.54858,0.4455 -17.33644,0.4029 -18.75269,-1.0133 -1.47314,-1.4732 -1.48363,-1.4731 -2.9752,0.019 -1.85731,1.8573 -7.4954,2.4904 -28.17575,3.1638 -11.96077,0.3895 -15.31246,0.2822 -16.80755,-0.538 -1.68587,-0.9248 -2.10436,-0.8471 -4.30265,0.7992 -2.19309,1.6425 -3.71522,1.9281 -15.31355,2.8734 -25.11306,2.0469 -28.4267,2.0458 -30.05947,1.7563 -1.32144,-0.2342 -1.75305,-1.1381 -2.31833,-3.5394 -1.83636,-5.8463 -3.69007,-11.8837 -6.46836,-16.5264 -0.67736,-0.6189 -1.06637,-0.8911 -1.54934,-0.8803 -5.91845,0.1331 -13.87257,0.9506 -20.08587,1.223 -12.68192,0.5485 -14.02474,0.2489 -14.02474,-3.1292 0,-2.0719 7.11138,-25.09002 8.70144,-28.16487 0.93561,-1.80926 1.52263,-2.11478 3.85782,-2.00787 5.87281,0.2689 9.85081,-0.0515 9.85081,-0.79342 0,-0.42614 -2.77325,-5.80388 -6.16277,-11.95055 -5.17186,-9.3788 -6.24869,-10.90574 -6.69713,-9.49649 -0.2939,0.92358 -3.7563,16.91207 -7.69422,35.5299 -7.0355,33.2628 -8.09383,38.97955 -10.78292,39.73555 -1.24349,0.3496 -8.48777,1.03265 -27.70144,1.93065 -8.07295,0.3774 -10.27266,0.2675 -10.91805,-0.5455 z m 33.4022,-2.6097 c 4.08468,-0.43 4.68526,-0.1857 6.25628,-3.5925 0.88427,-1.9176 4.14575,-18.3041 7.91545,-36.2745 8.87792,-42.32152 8.23632,-39.69167 9.61848,-39.42549 1.23341,0.23753 15.65297,25.52168 15.71528,27.55615 0.0396,1.29248 -8.1205,2.00513 -14.26929,1.83931 -1.26099,-0.419 -6.86719,17.68273 -9.31364,27.78413 -0.15829,0.6536 -0.4793,1.4156 0.63229,1.8948 11.55204,0.7215 30.0374,-1.4376 32.79223,-1.2578 1.14547,0.2622 1.06968,0.5281 1.98033,1.866 2.38683,3.5065 5.56814,13.5811 7.57302,18.9213 1.41874,0.8768 40.4878,-3.24736 41.95493,-3.7884 1.46713,-0.54104 0.92152,-0.32049 2.05426,-1.0276 1.13274,-0.70711 0.90705,-2.2979 -3.71919,-12.2016 -47.11975,-99.51488 -52.90459,-114.17574 -56.61444,-117.37974 -1.44462,-1.24765 -13.59695,-0.33262 -19.6404,-0.21065 -15.53237,0.31346 -20.39169,0.63899 -21.15914,1.41747 -0.54794,0.55582 -5.89158,20.00311 -11.87476,43.21621 -5.98319,23.2131 -13.56837,52.62631 -16.85596,65.36271 -6.0752,23.5357 -6.39282,25.0709 -5.40238,26.1109 0.56843,0.5969 24.73954,-0.01 32.35665,-0.8104 z m -29.17688,-2.9883 c 0.003,-0.7678 1.52829,-7.2787 3.39008,-14.4686 1.86179,-7.1899 5.07698,-19.6275 7.14487,-27.6391 2.06789,-8.01162 6.23058,-23.9788 9.25043,-35.48264 3.01985,-11.50384 7.03798,-26.96679 8.92919,-34.36211 1.89121,-7.39533 3.75236,-14.18743 4.13589,-15.09357 0.69532,-1.64278 1.23097,-1.63563 20.036,-1.50615 0,0 16.50148,0.12586 18.35335,1.19748 2.19593,1.27071 13.68292,27.72778 13.68292,27.72778 27.91769,56.7968 44.30369,93.96511 44.30369,94.76831 0,0.4508 -0.75634,0.9732 -1.68076,1.161 -1.68906,0.3431 -31.92186,2.7067 -34.35712,2.6861 -0.92253,-0.01 -2.82129,-3.0433 -6.51151,-10.4097 -2.86508,-5.7193 -5.47249,-10.5419 -5.79426,-10.7169 -0.32175,-0.175 -3.77845,-0.067 -7.68154,0.2402 -3.90308,0.3072 -10.87822,0.7779 -15.5003,1.046 -7.78503,0.4516 -8.40248,0.3883 -8.38622,-0.8599 0.0187,-1.4316 5.64337,-20.3298 6.22346,-20.9099 0.18831,-0.18833 3.98416,-0.67981 8.43522,-1.09222 8.51868,-0.78926 10.21452,-1.4255 9.37029,-3.51547 -1.91322,-4.73634 -21.43682,-38.95011 -22.10061,-38.7298 -0.45397,0.15068 -1.23925,2.26339 -1.74505,4.69491 -0.5058,2.43152 -4.45557,21.10924 -8.77728,41.50608 -4.3217,20.3968 -7.81869,37.74609 -8.23264,38.194 -0.65625,0.7101 -1.4403,1.2001 -9.14928,1.5875 -5.23836,0.2632 -12.63368,0.6798 -16.43406,0.9257 -6.41085,0.4148 -6.90941,0.3463 -6.90476,-0.949 z m 21.06662,-1.6705 c 4.81036,-0.2941 9.71331,-0.9337 9.96951,-1.1899 6.22133,-29.118 11.23993,-53.95427 17.07336,-81.35766 0.60767,-3.23916 1.36078,-4.68755 3.61229,-3.9226 4.47138,3.0455 18.23911,29.69521 22.16553,37.34381 2.6913,5.92457 2.15337,5.55498 0.90904,7.05708 -0.47223,0.57005 -3.58448,1.26397 -8.76584,1.75647 -4.47856,0.4258 -8.41259,1.0266 -8.7423,1.3351 -0.45447,0.4254 -5.70219,16.6952 -5.74229,17.8032 -0.004,0.1178 4.44624,-0.034 9.89003,-0.3369 5.44378,-0.3031 12.41553,-0.5675 15.49279,-0.5877 l 5.595,-0.037 5.51243,10.3514 5.51243,10.3513 6.44712,-0.4206 c 11.55613,-0.7538 19.8632,-1.3872 21.38717,-1.6308 0.82171,-0.1313 2.39548,-0.2637 3.49727,-0.2942 l 2.00327,-0.056 -3.40176,-7.2833 c -1.87096,-4.0058 -10.18681,-21.7377 -18.47966,-39.40435 -8.29285,-17.66661 -19.42882,-41.41381 -24.74659,-52.77155 -5.31779,-11.35774 -8.73284,-18.98544 -10.26541,-20.81292 -11.60552,-0.55632 -23.36256,-1.05946 -35.35831,-0.51887 -0.27831,0.27831 -4.95288,17.90579 -10.38792,39.17219 -9.18137,35.92507 -20.65819,80.5274 -21.72249,84.4201 -0.44514,1.6281 -0.29881,1.6789 4.66985,1.6241 2.82117,-0.031 9.06513,-0.2973 13.87548,-0.5913 z m 144.34996,-1.618 c 12.2514,-0.87249 16.12593,-0.3693 16.85951,-3.3824 0.16432,-0.6749 -0.29207,-28.9839 -0.29207,-28.9839 -0.2648,-16.08008 -0.6929,-36.90994 -0.95132,-46.2886 0,0 -0.1698,-16.58382 -0.46987,-17.05209 -0.30007,-0.46827 -1.9439,-0.73907 -1.9439,-0.73907 -2.04979,-0.77933 -44.49161,1.68077 -45.44502,2.63418 -0.86777,0.86777 3.4974,92.41918 4.46524,93.65008 0.90206,1.1472 15.52603,1.03429 27.77743,0.1618 z m -25.29781,-5.3909 c -0.22233,-1.7461 -1.08067,-19.31 -1.90742,-39.03084 -0.82675,-19.72086 -1.67438,-38.10501 -1.8836,-40.85365 -0.23486,-3.08531 -0.0812,-5.18243 0.4015,-5.48078 1.36465,-0.8434 39.56463,-2.8903 40.24682,-2.15658 0.77059,0.82879 2.36549,87.84845 1.62466,88.64385 -0.58393,0.6269 -22.47831,2.0259 -31.96073,2.0423 l -6.117,0.01 -0.40423,-3.1748 z m 27.6363,0.5136 c 4.14044,-0.2492 7.91835,-0.6942 8.39537,-0.989 0.65521,-0.405 0.69048,-9.2952 0.1442,-36.35332 -0.39771,-19.69948 -0.73007,-38.97305 -0.73859,-42.83016 l -0.0155,-7.01293 -4.66877,0.45961 c -2.56782,0.25278 -8.70258,0.65401 -13.63279,0.8916 -4.93022,0.23759 -11.23305,0.77985 -14.0063,1.20504 l -5.04227,0.77306 0.006,3.85427 c 0.0113,7.47534 3.68906,79.75283 4.09118,80.40343 0.40126,0.6493 10.70182,0.4868 25.46758,-0.4016 z m 60.34197,1.6147 c 2.817,-0.5446 5.41951,-1.4564 5.78337,-2.0261 0.36386,-0.5698 0.47731,-5.4059 0.25212,-10.7469 -0.22519,-5.3411 -0.88169,-25.10366 -1.45887,-43.91682 -0.98816,-32.20832 -1.13763,-34.3296 -2.55978,-36.32683 -0.83069,-1.16658 -2.37355,-2.28608 -3.42858,-2.48776 -1.05503,-0.20169 -6.52329,0.0803 -12.15168,0.62655 -5.6284,0.54629 -14.47822,1.00716 -19.66627,1.02415 -6.89499,0.0226 -9.6541,0.29754 -10.25534,1.02198 -0.59395,0.71568 -0.6272,8.44817 -0.11961,27.82585 0.38661,14.75911 0.91017,35.40658 1.16348,45.88328 0.25331,10.4768 0.61206,19.5222 0.79723,20.101 0.28342,0.886 3.19689,0.9701 18.42938,0.5321 9.95101,-0.2861 20.39755,-0.9658 23.21455,-1.5105 z m -38.63834,-6.4941 c -0.41577,-5.4227 -1.99288,-68.36205 -1.97511,-78.82298 l 0.009,-5.31381 12.88579,-0.46201 c 7.08718,-0.25412 16.15638,-0.68159 20.15376,-0.94995 5.85327,-0.39295 7.33184,-0.28652 7.5961,0.54681 0.29889,0.94252 2.74611,77.59024 2.70715,84.78854 l -0.0167,3.0776 -4.29526,0.838 c -2.3624,0.4609 -11.57298,1.0611 -20.46795,1.3338 l -16.17269,0.4959 -0.42416,-5.5319 z m 27.54051,2.7152 c 1.6434,-0.065 4.92088,-0.3887 7.28327,-0.7201 l 4.29527,-0.6027 -0.012,-7.1972 c -0.007,-3.9584 -0.4503,-21.8197 -0.98598,-39.69177 -0.53566,-17.87204 -1.00235,-33.77908 -1.03707,-35.34898 -0.0347,-1.5699 -0.23799,-3.02922 -0.45171,-3.24294 -0.21371,-0.21371 -4.69984,10e-4 -9.96917,0.47889 -5.26934,0.47711 -13.57337,0.8432 -18.45342,0.81353 l -8.87281,-0.0539 0.47365,12.51395 c 0.26051,6.88267 0.638,20.24543 0.83886,29.69501 0.20086,9.44958 0.57182,23.32711 0.82436,30.83901 l 0.45916,13.6579 11.30981,-0.5116 c 6.22039,-0.2814 12.6544,-0.5645 14.29781,-0.6291 z m 84.78478,6.3855 c -4.78057,-0.6789 -10.04562,-3.1543 -10.79766,-5.0765 -0.62705,-1.6028 -2.77662,-105.3245 -2.48139,-119.73311 0,0 -0.17053,-6.12182 0.51901,-8.35989 0.68954,-2.23806 1.93711,-2.70104 3.08861,-3.17515 1.15151,-0.4741 3.15946,-1.09244 10.41843,-0.73641 4.72479,0.23174 12.56938,0.46407 17.42997,0.61067 5.6629,0.17081 9.8165,0.5297 9.67493,5.30536 -0.0496,1.67402 -0.58631,30.44243 -0.58631,63.99783 0,60.7669 -0.006,61.0182 -1.56535,63.1217 -0.86095,1.1616 -2.87785,2.5601 -4.48202,3.108 -3.53636,1.2077 -15.57134,1.7394 -21.21822,0.9375 z m 19.42206,-2.554 c 2.89662,-0.7528 3.47077,-1.3822 5.3699,-4.0141 0.62543,-0.8668 0.84098,-4.2491 0.78656,-8.3324 -0.0947,-7.105 0.18891,-114.49278 0.22997,-116.89107 0.0411,-2.39829 -2.6746,-2.63627 -3.99458,-2.73891 -1.31997,-0.10264 -6.80841,-0.46041 -15.40396,-0.58803 -11.94796,-0.17739 -13.35585,-0.31543 -15.53006,0.7163 -1.3721,0.65111 -1.5714,1.12462 -1.91434,1.93125 -0.34294,0.80663 1.77405,125.77366 1.99794,126.19116 0.56739,1.058 5.24521,3.4407 7.70764,3.926 4.69242,0.9247 16.87526,0.8071 20.75133,-0.2002 z m -21.54553,-2.6953 c -1.37333,-0.3478 -2.77621,-0.9206 -3.11752,-1.2729 -0.3413,-0.3522 -0.97562,-19.1287 -1.4096,-41.72555 -0.43398,-22.59683 -0.99086,-50.78057 -1.2375,-62.63053 0,0 -0.96338,-20.74673 -0.42634,-21.32441 0.53703,-0.57768 12.39754,0.32296 12.39754,0.32296 5.98349,0.44135 16.53395,0.86417 17.34709,1.6776 0.35172,0.35186 0.30992,9.66482 0.36599,24.34877 0.0561,14.68395 0.14223,35.75525 0.14223,35.75525 0.35687,33.14311 0.44381,61.07721 0.1932,62.07571 -0.25061,0.9985 -1.04682,2.0704 -1.76936,2.382 -1.91539,0.826 -19.55692,1.1328 -22.48573,0.3911 z m 22.83592,-3.7256 c 0.0309,-0.4075 0.24151,-4.6953 -0.11822,-18.5435 -0.26415,-10.1686 -0.48032,-37.20335 -0.48038,-60.07725 l -1.2e-4,-41.58889 -4.64107,-0.40664 c -2.55259,-0.22365 -8.63283,-0.61209 -13.51164,-0.8632 l -8.87057,-0.45656 0.46113,9.95749 c 0.25363,5.47662 0.83872,32.81576 1.30018,60.75366 0.69115,41.84299 1.132,51.59949 1.9367,52.57229 1.16725,1.411 20.32716,1.1351 22.13483,0.3301 1.80768,-0.805 1.75825,-1.2699 1.78916,-1.6775 z m -82.9254,7.4251 c -4.71384,-0.4538 -4.56428,0.7625 -5.84708,-47.55145 -0.64106,-24.14433 -1.62912,-47.12063 -1.38547,-48.09143 0.73877,-2.94346 3.70745,-3.80141 14.83999,-4.28875 10.44882,-0.5435 29.55708,-1.72706 30.9096,-1.44078 1.35252,0.28628 2.56328,0.76771 3.36934,2.45706 1.17889,2.47072 2.20302,10.126 2.81204,48.07872 0.37336,23.26693 0.96212,43.06923 1.30836,44.00523 0.059,0.9802 0.22666,2.5659 -0.11865,3.5298 -1.03565,2.8908 -3.62315,3.5032 -24.39731,3.5207 -10.47671,0.01 -20.14757,-0.09 -21.49082,-0.2191 z m 44.23074,-5.2378 c 0.15503,-1.36832 -0.92678,-20.5787 -1.40801,-44.20266 -0.8002,-39.28268 -2.3457,-47.3817 -2.97368,-48.54151 -0.62799,-1.15981 -0.97801,-1.1621 -2.18582,-1.44257 -1.20781,-0.28047 -8.16691,0.0629 -8.16691,0.0629 -4.97305,0.2924 -13.95886,0.77977 -19.96847,1.08305 -8.38148,0.42299 -11.38291,0.85044 -12.88579,1.83517 -2.38829,1.56487 -1.67833,1.15112 -0.19868,54.45526 0.94141,33.91406 1.21132,38.55816 2.28665,39.34446 1.78443,1.3048 41.64879,1.2811 43.30519,0.6577 1.6564,-0.6234 2.04049,-1.88348 2.19552,-3.2518 z m -44.7119,-49.05817 c -0.7134,-27.32677 -1.41558,-39.92495 -0.80924,-40.32648 0.45581,-0.30185 4.69448,-0.55348 9.41927,-0.55918 4.72479,-0.006 13.05374,-0.40501 18.50879,-0.88737 6.0551,-0.53541 10.18179,-0.60856 10.59486,-0.18782 0.77432,0.7887 2.67497,86.3544 2.59568,86.6358 -0.0793,0.2813 -0.79975,2.91978 -1.02678,3.05288 -0.22702,0.133 -8.21846,1.62504 -18.86653,1.68704 0,0 -18.35118,0.1781 -18.77154,0.02 -0.43664,-0.1641 -0.5665,-0.6808 -0.5665,-0.6808 -0.0495,-1.77116 -0.15656,-4.38383 -0.29688,-7.7527 -0.14031,-3.36888 -0.4264,-27.71769 -0.78113,-41.00137 z m 36.91203,46.74117 c 1.79492,-0.8362 1.86015,-1.1082 1.67822,-6.998 -0.10411,-3.3705 -0.51183,-22.066 -0.90605,-41.54562 -0.39421,-19.47966 -1.64425,-38.40915 -1.96762,-38.7166 -0.32338,-0.30744 -3.27717,-0.27081 -6.56398,0.0814 -3.28681,0.35223 -9.54273,0.97103 -13.90204,0.99318 -4.3593,0.0222 -9.51522,0.25811 -11.45759,0.52434 l -3.53157,0.48406 1.07087,18.56428 c 0.22439,8.87522 0.65661,27.73397 0.9605,41.90836 0.30389,14.1744 0.48566,23.9545 0.56516,24.5359 0.0795,0.5814 0.24731,0.811 1.19519,0.9844 0.96876,0.1772 2.51325,0.2433 16.14949,0.1528 9.5241,-0.063 15.51104,-0.4102 16.70942,-0.9685 z m 59.96724,5.8026 c -0.93911,-1.6694 -1.25254,-13.2573 -2.48267,-91.78658 -0.45895,-29.29843 -0.66226,-35.1268 -1.10091,-38.54768 -0.43865,-3.42087 1.88608,-5.03133 4.06166,-5.57838 2.17558,-0.54704 10.72189,-1.65444 18.25996,-3.14489 7.53806,-1.49043 14.29442,-2.60676 15.01413,-2.48071 1.88459,0.33005 41.73994,36.54181 42.18263,38.32629 0.20386,0.82171 0.72356,10.06586 1.1549,20.54257 0.43134,10.47671 0.98531,22.7713 1.23105,27.32131 0.3813,7.05995 0.26763,8.45193 -0.77539,9.49494 -1.80667,1.80668 -6.18187,2.44293 -7.7403,1.12561 -0.70256,-0.59387 -7.1214,-6.09625 -14.26408,-12.22753 -19.47854,-16.72037 -18.0139,-15.58285 -18.0139,-13.99068 0,0.75592 0.35428,6.697 0.78731,13.20241 0.86105,12.9359 2.32639,44.88602 2.33876,50.99432 0.0134,6.6443 -0.38422,6.9257 -9.29427,6.5752 -7.06586,0.5454 -15.20033,1.1171 -21.66407,1.4109 -8.43069,0.3672 -8.82031,0.3175 -9.69481,-1.2371 z m 25.86221,-1.9901 c 10.77923,-0.2536 11.12105,0.396 12.21673,-0.6286 1.18787,-1.4669 0.82577,-2.6815 0.515,-8.9398 -0.64056,-12.8994 -1.84664,-39.80981 -2.32497,-51.87556 -0.38968,-9.82917 -0.29381,-11.76268 0.58258,-11.74938 0.57697,0.009 8.61243,6.56578 17.85658,14.5712 14.43547,12.50107 17.07112,14.49446 18.67506,14.12428 1.02713,-0.23706 2.17643,-0.73297 2.55401,-1.10201 0.41723,-0.4078 0.33914,-8.81089 -0.19909,-21.42346 -0.48707,-11.41386 -0.88004,-23.49212 -0.87325,-26.84058 l 0.0123,-6.08811 -15.8738,-14.40346 c -8.73059,-7.9219 -18.13543,-16.55177 -20.89963,-19.17747 -2.7642,-2.62571 -5.36209,-4.56619 -5.77308,-4.31219 -1.19134,0.73629 -26.90274,5.23342 -29.91273,5.64083 -4.10915,0.55619 -4.53022,2.82372 -4.22346,4.36848 0.2031,1.02275 1.10468,7.74082 1.49608,35.01383 1.00963,70.3518 1.45515,90.9922 1.9954,92.4455 0.51253,1.3787 1.15321,1.4804 8.30047,1.3184 5.49176,-0.2241 10.76479,-0.5946 15.8758,-0.9419 z m -19.44768,-1.983 c -1.56628,-0.3368 -1.6146,-0.7271 -1.95681,-15.8035 -1.51846,-66.89916 -2.26864,-109.97406 -1.92132,-110.32138 0.50856,-0.50857 26.55566,-5.59519 28.69108,-5.60296 1.28207,-0.004 21.04037,17.13325 37.02595,32.11549 l 2.7896,2.61451 0.79922,19.79557 c 0.43957,10.88756 0.99736,22.26013 1.23954,25.27239 0.41838,5.20397 0.36478,5.46447 -1.07587,5.22902 -0.8339,-0.1363 -8.48904,-6.29853 -17.01142,-13.69386 -19.52163,-16.93996 -19.65149,-17.03774 -21.0676,-15.86248 -1.18685,0.98499 -1.21871,-1.81904 0.59185,52.081 0.39631,11.7981 0.4299,21.5634 0.0754,21.9179 -0.35166,0.3517 -5.12999,0.9231 -10.61852,1.2698 -5.48852,0.3466 -11.32373,0.7886 -12.96713,0.982 -1.64341,0.1935 -3.71068,0.1964 -4.59396,0.01 z m 17.06431,-2.942 c 6.33667,-0.3663 8.843,-0.7855 9.12742,-1.5267 0.21566,-0.562 -0.007,-12.3668 -0.49585,-26.2329 -0.48837,-13.86611 -0.89806,-30.0249 -0.91041,-35.90843 -0.0198,-9.42547 0.0427,-10.39078 1.06384,-11.5173 1.0211,-1.12652 3.05115,-1.43103 4.88544,-0.24072 1.83429,1.19031 24.53292,21.23373 31.97834,27.27239 l 2.25512,1.82902 -0.46191,-4.07003 c -0.25404,-2.23852 -0.66441,-12.13766 -0.91191,-21.9981 -0.24751,-9.86043 -0.59501,-18.647 -0.77225,-19.52572 -0.17969,-0.89086 -7.18157,-7.83067 -15.82739,-15.68705 -8.52782,-7.74916 -16.91333,-15.37318 -18.63445,-16.94225 l -3.12931,-2.85286 -9.94501,1.93771 c -5.46977,1.06573 -11.76057,2.29986 -13.97958,2.74249 l -4.03456,0.80477 0.59801,26.62897 c 0.3289,14.64592 0.64224,29.48624 0.69631,32.97848 0.54565,35.24533 1.50409,62.45203 2.21812,62.96453 0.45192,0.3245 2.33435,0.4231 4.18318,0.2193 1.84883,-0.2039 7.29241,-0.5979 12.09685,-0.8756 z m 61.37192,7.2173 c -2.33455,-1.4235 -2.35541,-1.4914 -2.81325,-9.148 -0.25369,-4.2426 -1.13884,-24.1853 -1.96702,-44.31698 -0.82816,-20.13172 -1.97919,-47.30694 -2.55783,-60.38937 -0.62337,-14.09358 -0.78481,-24.4892 -0.3962,-25.51133 0.87888,-2.31164 2.22488,-2.46178 27.31584,-3.04694 19.06327,-0.44459 21.07873,-0.37478 22.22332,0.76981 1.07372,1.07372 1.26339,3.03529 1.2903,13.34419 0.0173,6.64698 0.48528,36.96061 1.03986,67.36362 0.6825,37.416 0.95094,55.0799 0.25049,56.2119 -0.34803,0.5625 -2.77847,1.9338 -3.41479,1.9338 -4.74414,2.246 -12.69773,2.176 -18.73818,2.7273 -20.20283,1.8252 -19.34477,1.8228 -22.23254,0.062 z m 23.15598,-2.1798 c 5.35839,-0.5394 17.36149,-0.4996 19.63408,-4.2151 0.37149,-2.8563 -0.91624,-104.75362 -1.67617,-122.75303 -0.42535,-10.07441 -0.5442,-10.72373 -2.05215,-11.21176 -0.88035,-0.28493 -10.91748,-0.34694 -22.30471,-0.13781 -17.19637,0.31581 -20.89671,0.57311 -21.84113,1.51872 -1.20223,1.20374 -1.19962,1.28817 2.94906,95.34332 0.61903,14.03416 1.1301,28.32056 1.13571,31.74766 0.02,12.2282 -0.75397,11.9171 24.15531,9.708 z m -19.94404,-2.1737 c -0.3699,-0.5986 -1.30158,-21.0558 -4.6474,-102.0457 -0.65962,-15.96658 -0.91765,-29.2967 -0.57343,-29.6225 0.34422,-0.3258 8.99079,-0.89578 19.67292,-1.03746 0,0 18.60456,-0.64722 19.48457,0.2424 0.88255,0.89219 0.95314,23.40408 0.95314,23.40408 1.44549,67.01033 2.10218,104.59818 1.44477,105.69668 -0.29303,0.4897 -21.96128,2.4703 -32.0805,3.5902 -2.1175,0.2343 -4.03183,0.1318 -4.25407,-0.2277 z m 20.42961,-3.212 c 5.13564,-0.4193 10.4748,-0.9413 11.86478,-1.1601 l 2.52726,-0.3978 -0.48182,-18.4358 c -0.265,-10.13965 -0.67389,-38.43005 -0.90863,-62.86751 -0.23474,-24.43747 -0.59137,-44.69802 -0.7925,-45.02346 -11.3265,-0.88514 -35.48266,0.0717 -36.12569,0.64914 -0.64303,0.57747 0.1794,27.00382 1.87386,57.80547 0.21472,3.90309 0.53656,11.29841 0.71521,16.43406 0.89385,25.6961 2.08913,52.7776 2.37019,53.7021 0.24704,0.8125 1.32766,0.9316 4.96776,0.5473 2.55863,-0.2702 8.85394,-0.8342 13.98958,-1.2534 z M 259.98728,445.33241 c -1.47004,-0.99431 -2.37752,-5.03454 -3.70792,-16.50812 -1.42819,-12.31694 -1.26313,-12.96305 2.26987,-15.26887 1.77183,-1.15639 21.12703,-2.03068 47.44309,-2.39007 24.87554,-0.33972 64.80406,-1.96553 75.89315,-2.38342 4.40762,-0.1661 11.83392,-0.29605 16.70866,-0.42235 5.82011,-0.15079 8.82615,-0.51171 11.23564,-0.66153 3.06675,-0.19069 3.99381,0.10773 4.51884,0.68782 0.50211,0.55478 1.13798,1.19279 0.53844,14.41144 -0.50302,11.09075 -0.74429,14.05382 -1.59277,15.07612 -0.84844,1.02231 -2.41509,1.08237 -3.6645,1.13911 -0.62261,0.0283 -1.18239,-0.021 -5.23872,0.0411 -3.35266,0.0513 -9.50544,0.28939 -13.61396,0.50241 l -14.19305,0.73592 c -3.69766,0.19173 -11.09298,0.54071 -16.43405,0.7755 -5.34107,0.23479 -11.22371,0.56068 -13.07254,0.7242 -1.84883,0.16351 -8.57186,0.51726 -14.94005,0.7861 -6.3682,0.26886 -12.41892,0.58651 -13.44605,0.70591 -1.02712,0.11941 -7.58207,0.44583 -14.56654,0.72538 -6.98448,0.27956 -17.23709,0.81736 -22.78358,1.19512 -12.12085,0.82552 -20.25089,0.87435 -21.35396,0.12826 z m 82.60816,-5.35615 c 48.87484,-2.53567 66.59314,-2.53469 67.65737,-2.64868 0.91906,-0.0984 1.44082,-0.34908 1.92818,-0.96172 0.479,-0.60212 1.56561,-24.75903 1.08966,-25.44713 -0.47595,-0.6881 -0.68717,-0.92546 -2.22883,-0.88584 -1.54166,0.0396 -2.88938,0.42979 -8.20292,0.57383 -3.75806,0.10188 -23.64039,0.68759 -44.18295,1.30159 -20.54257,0.614 -51.13232,1.46978 -67.97723,1.90173 -37.68202,0.96627 -34.33261,-0.50498 -32.40891,14.23586 1.59751,12.24134 1.95405,14.10113 2.92849,15.27524 0.53986,0.6505 2.56758,0.81526 6.90533,0.56108 3.37757,-0.19792 36.89886,-1.9556 74.49176,-3.90595 z m -79.46853,-0.13371 c -0.51711,-1.68794 -1.95474,-15.27059 -1.95474,-18.46823 l 0,-2.95399 10.64479,-0.46386 c 5.85463,-0.25513 35.18382,-1.11889 65.17596,-1.91948 29.99215,-0.8006 58.77332,-1.6453 63.95815,-1.87713 0,0 9.01789,-0.63964 9.47116,-0.13424 0.45327,0.50541 -0.29862,8.77823 -0.29862,8.77823 -0.14012,4.99293 -0.85704,9.53403 -1.26054,9.78432 -1.20264,0.746 -28.58131,2.04097 -65.14708,3.92701 -36.56577,1.88604 -69.5857,3.63912 -73.3776,3.89575 -5.52508,0.37391 -6.95735,0.26103 -7.21144,-0.56838 z m 63.40798,-4.06428 c 77.85647,-3.96465 80.17176,-4.09855 80.64958,-4.60477 0.24527,-0.25986 1.02632,-3.97499 1.27608,-8.1135 l 0.45449,-7.53057 -7.57496,0.27697 c -4.16623,0.15233 -36.95948,1.10329 -72.87387,2.11323 -35.91439,1.00994 -65.44257,1.97992 -65.61816,2.15552 -0.70873,0.70872 1.64756,17.09363 2.59438,18.04045 0.71758,0.71759 2.33336,0.89693 5.65062,0.62715 2.55512,-0.20779 27.50395,-1.5418 55.44184,-2.96448 z M 71.060056,547.83763 c 34.947794,-0.4903 43.326694,-0.7695 44.479844,-1.4822 0.41466,-0.2563 2.03252,-3.0457 3.59526,-6.1987 l 2.84134,-5.7328 -0.50102,-26.4254 c 0,0 -0.592,-26.10023 -1.11973,-26.91141 -0.39536,-0.60772 -1.26981,-1.33664 -1.26981,-1.33664 -1.79139,-1.16267 -2.65035,-0.99429 -15.15779,-0.55505 -8.601386,0.30206 -13.967986,0.80388 -14.894686,1.39274 -1.339816,0.85139 -1.452066,1.89814 -1.493996,13.9321 l -0.0453,13.01156 -12.48425,0.8434 c -6.866342,0.4638 -15.942422,0.968 -20.169071,1.1205 l -7.684817,0.2771 -0.655106,-19.97236 C 46.14385,478.91431 45.773341,466.82222 45.468758,462.71621 l -0.553785,-7.46547 -2.241008,-0.47642 c -1.232554,-0.26204 -9.679208,-0.5162 -18.770345,-0.56481 -13.087756,-0.07 -16.7044448,0.12261 -17.3703428,0.92497 -1.004705,1.2106 0.361492,64.03205 1.452223,66.77715 0.367302,0.9244 3.5323468,4.9592 3.9162368,5.3489 0.696676,0.7071 16.206677,18.3435 16.952684,19.2865 1.104854,1.3965 2.031038,2.5213 5.976018,2.1392 2.259683,-0.2189 18.563012,-0.6007 36.229617,-0.8486 z m -40.365902,-3.8835 c -1.236324,-2.5821 -17.672012,-22.05 -18.779042,-22.8672 -1.058363,-0.7813 -1.594779,-11.0691 -1.9237338,-44.18222 l -0.185522,-18.67507 16.1765128,-0.20112 16.176512,-0.20112 0.429972,6.92414 c 0.236485,3.80828 0.634723,16.00023 0.884972,27.09322 0.25025,11.09298 0.759656,20.48717 1.132012,20.87587 0.425329,0.4441 6.856953,0.3243 17.300629,-0.3222 9.14299,-0.5661 19.480902,-1.0835 22.973142,-1.15 l 6.349516,-0.1208 -0.25522,-13.87439 -0.25522,-13.8744 3.99022,-0.4042 c 2.19463,-0.22231 8.232786,-0.57731 13.418136,-0.7889 l 9.4279,-0.38469 0.52985,27.05848 0.52985,27.0584 -2.1788,3.942 -2.17881,3.942 -17.863476,0.3129 c -9.824906,0.172 -28.464728,0.5443 -41.42182,0.8272 -23.121846,0.5048 -23.571674,0.4865 -24.27758,-0.9879 z m 45.968424,-1.4201 c 15.406916,-0.2744 29.849762,-0.5306 32.095212,-0.5695 3.94454,-0.068 4.14217,-0.1717 5.8434,-3.0586 l 1.76078,-2.988 -0.43826,-25.72 c -0.24105,-14.14597 -0.57375,-25.85543 -0.73932,-26.021 -0.16557,-0.16557 -5.27618,-0.0207 -11.35691,0.32188 l -11.055866,0.62292 -0.0243,14.19305 -0.0243,14.19305 -2.2852,-0.1405 c -3.666926,-0.2087 -7.025646,-0.1382 -10.228576,0 -3.20294,0.1427 -9.690862,0.5628 -14.004802,0.8112 -4.313938,0.2483 -10.574079,0.6544 -13.911422,0.9024 -7.122823,0.5292 -9.085317,0.062 -10.015598,-2.3849 -0.3764,-0.99 -0.705603,-9.95331 -0.731562,-19.91842 -0.02596,-9.96512 -0.249306,-21.5709 -0.496327,-25.79062 l -0.449068,-7.67222 -14.650321,0.2022 -14.650322,0.2022 0.01294,5.97602 c 0.0071,3.28681 0.29178,16.56478 0.632575,29.5066 0.607221,23.05944 0.432211,24.09084 2.074295,25.55494 6.233589,6.3926 14.373779,17.5128 18.914709,22.4145 0.616277,0.2103 5.294913,0.3326 8.992575,0.1639 3.697663,-0.1687 19.328689,-0.5312 34.735618,-0.8056 z m 590.144652,4.2414 c 10.88057,-0.8128 26.84202,-2.0029 35.4699,-2.6447 14.78284,-1.0995 20.87064,-2.0751 21.74143,-3.4841 0.41033,-0.6639 -3.24937,-71.67638 -3.8306,-74.32867 -0.60616,-2.76608 -3.94528,-3.21544 -19.56194,-2.63252 -7.89259,0.2946 -14.64881,0.86832 -15.01383,1.27493 -0.37633,0.41921 -0.42447,5.26726 -0.11119,11.19733 0.30387,5.75192 0.79927,15.01698 1.1009,20.58902 l 0.54842,10.13101 -17.08768,0.7909 c -20.50932,0.9493 -22.50764,0.7877 -23.56867,-1.9054 -0.64694,-1.642 -0.4432,-37.38235 0.40439,-70.93782 0.15271,-6.0455 -0.438,-6.28531 -14.09246,-5.72127 -13.91004,0.57462 -25.92857,1.74998 -26.81959,2.62286 -0.80949,0.793 -0.79646,1.39767 1.07547,49.92858 0.81393,21.1013 1.93396,36.96215 2.02337,37.61665 0.11963,0.8758 0.88094,1.6166 1.69405,2.1891 0.8131,0.5725 7.84332,5.073 17.91654,13.7228 9.98562,8.5745 16.4881,13.6533 17.19377,13.4293 0.62417,-0.1981 10.03714,-1.0252 20.91772,-1.838 z m -24.10963,-3.6119 c -1.33192,-1.0918 -8.89258,-7.4862 -16.80147,-14.2097 -13.80205,-11.7334 -14.38028,-12.3343 -14.3917,-14.9558 -0.007,-1.5022 -0.66791,-20.03713 -1.4697,-41.1888 -0.80178,-21.15168 -1.21542,-38.69995 -0.9192,-38.99618 0.81337,-0.81336 33.29273,-2.06928 34.08002,-1.31781 0.4066,0.3881 0.32712,8.37057 -0.19827,19.9141 -0.9688,21.28566 -1.03527,38.04064 -0.20166,50.82966 0.56786,8.71193 1.74183,8.65553 3.27567,8.72803 1.25854,0.06 3.83619,-0.9013 20.49941,-1.2888 22.4537,-0.5222 24.26881,-0.9197 23.72768,-5.196 -0.28928,-2.28593 -1.58019,-23.92944 -2.01637,-33.80654 l -0.19793,-4.48202 13.07255,-0.50794 c 7.1899,-0.27937 13.62555,-0.35194 14.30144,-0.16128 0.68434,0.19305 1.40868,1.41118 1.63462,2.74895 0.70794,4.19165 3.82979,69.16423 3.34649,69.64753 -0.25448,0.2545 -15.53803,1.5971 -33.96345,2.9837 -18.42542,1.3866 -35.26829,2.6837 -37.42861,2.8826 -3.4389,0.3165 -4.2293,0.1144 -6.34952,-1.6237 z m 12.89188,-0.8911 c 5.13564,-0.3895 12.19481,-0.9042 15.68705,-1.1438 3.49223,-0.2397 7.69412,-0.5625 9.33753,-0.7175 1.6434,-0.155 6.01337,-0.4931 9.71103,-0.7513 3.69766,-0.2583 8.06763,-0.5951 9.71103,-0.7486 1.64341,-0.1534 6.63853,-0.5179 11.10027,-0.8098 l 8.11226,-0.5309 -0.41478,-3.4408 c -0.22813,-1.8925 -1.17644,-17.5224 -2.10736,-34.7333 l -1.69257,-31.29245 -8.24591,0.4752 c -4.53525,0.26136 -10.20423,0.47673 -12.59774,0.4786 l -4.35183,0.004 0.3844,5.78926 c 0.21141,3.1841 0.60521,10.49539 0.8751,16.24731 0.26989,5.75192 0.81208,11.73512 1.20486,13.29602 1.76929,7.03116 0.18146,7.54596 -25.87145,8.38796 -7.01722,0.027 -18.82179,1.104 -20.83097,1.2031 -2.00917,0.099 -3.10683,-1.2462 -3.56077,-2.3155 -1.10372,-2.6 -2.3143,-22.99228 -1.36539,-46.00965 0.49029,-11.8927 1.0489,-24.05727 1.24136,-27.03239 l 0.17314,-5.12204 -1.93852,0.0443 c -1.16342,0.1824 -7.6618,0.52214 -14.44084,0.75498 -6.77905,0.23285 -13.05356,0.61674 -13.94335,0.85309 -1.50711,0.40032 -1.59665,0.79547 -1.30858,5.77482 0.61303,10.59683 1.78951,40.04929 2.25747,56.51478 0.26273,9.24416 0.68879,17.19816 0.9468,17.67556 0.49699,0.9196 31.57951,27.7627 32.21672,27.8226 0.20543,0.019 4.57539,-0.2836 9.71104,-0.673 z m 11.23703,-116.13848 c -5.59784,0.19358 -11.34908,0.37414 -18.33356,0.47023 -6.98447,0.0961 -10.30144,0.28993 -7.37104,0.43074 8.57712,0.41216 8.17429,-1.09237 7.00506,26.16388 -1.14238,26.63024 -0.74084,51.54164 0.847,52.54773 1.16578,0.7387 14.77031,0.52795 19.8108,0.34155 5.04049,-0.1864 10.82301,-0.5458 16.22885,-0.7958 L 684.45835,496.14 c -0.27102,-4.82751 -0.70987,-14.03652 -0.97523,-20.46447 0,0 -0.11501,-8.8794 0.20504,-10.93717 0.32005,-2.05777 2.29224,-2.37286 2.29224,-2.37286 0,0 3.36134,-0.71852 6.70972,-0.6626 2.80775,0.0469 9.7268,0.002 15.37567,-0.0996 13.25007,-0.23844 13.70007,7.5e-4 14.31098,7.61843 0.24004,2.99305 1.23902,20.23256 2.21995,38.31 1.96436,36.2009 2.00575,35.6082 -2.55719,36.6104 -3.25412,0.7148 -4.16668,0.7852 -24.05766,2.3165 l -36.06004,2.7761 c -13.37774,1.1086 -16.3122,1.2497 -17.23664,1.2497 -1.09786,0 -7.1395,-4.6633 -17.42021,-13.446 -11.40398,-9.7423 -16.12762,-12.6948 -17.18808,-13.5345 -1.04772,-0.8296 -2.45526,-2.2346 -2.96431,-3.5735 -0.39609,-1.0418 -1.555,-20.0802 -2.46732,-44.46815 -1.3838,-36.99153 -1.49385,-44.54043 -0.66389,-45.54048 0.6382,-0.76898 2.85452,-1.27351 7.84787,-1.63967 3.31679,-0.19041 1.57048,-0.0953 3.37365,-0.20105 1.80318,-0.10575 12.737,-0.875 7.77772,-0.70885 -4.11364,0.14403 -6.21724,0.28099 -9.78163,0.38991 -3.22507,0.0978 -4.75913,0.2321 -9.48395,0.006 -6.99655,-1.45751 -1.89808,-8.96392 -0.80963,-12.11418 2.13171,-6.40249 9.5846,-23.28337 10.92502,-24.65444 1.39602,-1.42796 22.69497,-1.30116 49.40042,-1.58533 26.70544,-0.28417 43.82311,-0.30867 44.6979,0.14556 0.87478,0.45419 5.17992,5.46724 5.17992,6.37174 0,0.90448 -2.57845,5.54322 -5.72989,10.3083 -3.15145,4.76509 -7.20155,10.93281 -9.00023,13.70606 l -3.27033,5.04226 -5.69057,0.2602 c -8.14573,0.44409 -16.9933,0.69216 -22.59114,0.88574 z m -594.309424,19.77015 29.974694,0 3.95996,-6.16277 c 9.60939,-14.95482 14.38376,-23.12681 14.03798,-24.02789 -0.20493,-0.53406 -1.45197,-1.18689 -2.77119,-1.45073 -1.31922,-0.26384 -22.872326,-0.47972 -47.895794,-0.47972 -39.752871,0 -46.181864,-0.0128 -48.333449,0.1295 -1.512262,0.0482 -5.536673,5.29445 -9.796079,12.52843 -3.1659088,5.37683 -9.5110288,16.19227 -8.5824828,18.0143 1.196476,1.93594 4.392434,2.20796 21.5693928,1.83584 9.824248,-0.21282 31.350885,-0.38696 47.836968,-0.38696 z M 7.9821492,441.73057 c 0.02409,-0.78594 2.9813278,-6.47125 6.5716428,-12.63402 l 6.527846,-11.20504 47.212538,-0.19233 c 34.941284,-0.14233 47.212514,0.0289 47.212514,0.65885 0,0.46814 -3.2265,6.01714 -7.17,12.33111 l -7.16999,11.47995 -13.559312,7.5e-4 c -7.45762,5e-4 -28.434007,0.22336 -46.614179,0.49523 -32.2376288,0.48209 -33.0537758,0.45898 -33.0110598,-0.93467 z m 91.5068548,-1.41218 c 0.43443,-0.12815 3.264646,-4.21817 6.289376,-9.08893 3.02472,-4.87077 5.98541,-9.61228 6.57931,-10.53669 l 1.07982,-1.68076 -45.466304,0.002 -45.466308,0.002 -3.706055,6.53383 c -2.038331,3.59362 -4.982658,8.64562 -6.542951,11.22667 l -2.8368948,4.69284 44.6400758,-0.45942 c 24.552045,-0.25268 44.995511,-0.56427 45.429931,-0.69242 z M 634.67341,424.99582 c 60.728,-1.67206 58.03735,-1.52379 59.58381,-3.28342 2.20999,-2.5146 16.61044,-24.82079 16.61044,-25.72943 -1.55489,-1.775 -2.54273,-3.52708 -3.92176,-4.76347 -0.51357,-0.17232 -21.05743,-0.0573 -45.65302,0.25551 -39.44043,0.50166 -44.8753,0.71001 -46.04112,1.76507 -0.72703,0.65795 -6.15861,12.25367 -7.23686,15.28912 -1.42989,4.34861 -6.88413,16.25883 -5.20726,16.971 1.67687,0.71217 16.86969,-0.0917 31.86577,-0.50438 z m -28.08766,-3.11722 c -0.25949,-0.41986 1.95774,-6.41237 4.92718,-13.31668 l 5.39897,-12.5533 12.80252,-0.43259 c 7.04138,-0.23793 27.34105,-0.62944 45.11037,-0.87004 28.53092,-0.3863 32.30786,-0.30536 32.30786,0.69235 0,0.83446 -13.78927,22.71191 -15.21189,24.13453 -0.12037,0.12038 -15.65544,0.7113 -34.52237,1.31317 -18.86694,0.60187 -37.91192,1.25218 -42.32218,1.44513 -5.03645,0.22034 -8.19413,0.0669 -8.49046,-0.41257 z m 49.28444,-2.51376 c 18.43728,-0.62191 33.9912,-1.39313 34.56427,-1.71384 1.16352,-0.65114 14.67784,-21.07738 14.23687,-21.51834 -0.35378,-0.35379 -85.78781,1.07014 -86.15358,1.43592 -0.32207,0.32206 -9.98943,22.24625 -9.98943,22.65458 0,0.52529 13.67065,0.27744 47.34187,-0.85832 z"
             id="path4134"
             inkscape:connector-curvature="0"
             sodipodi:nodetypes="szcsssscscsssczzsssssssszsssszcccsszcccccscscsscssssssszssszssssssssccscssssssscsccccscccsccscsscszzssscccscccsssssscscsscssscssssscsccccssccsscccssscsssccsscscccsczssczcsczcsccccsccccsscccccscccccsscsscssccccczccssccccccczcscscssscsccccczcsssscsscszcscszssccszcsccccszcszcsccscssszzcsccssscsccsccsszssssccsczzcssscccscczcsszssccsccsscszsssssssccsccsccszssscssssssscccsccszsscssssssccsccszsscssssscsscsssssccsssscssscccccssscssscssscssssssscsssssscssscssssssszssssssscssscsssscscscsscsssscsccssccszsscsccssssscsccscscsscsscssssssssscssccscssscccsscccccssscssccscsccsczsssscccssccsccssccscsccssssssszssssccscsccsssscssscsssccscsccsscsccsssczsssccsssscccccscsccssccccczczcsssssscssssccczczcccczsssccsczccsccccssccccccccssccccsccccssccccssccccczsssccccccsssscssss" />
        </g>
      </g>
    </g>
    <g
       id="g6634"
       transform="translate(0.04028793,0)">
      <g
         transform="translate(-1.0000001,-224.00001)"
         id="g6625">
        <g
           id="g5076"
           transform="translate(-7.0000007,-182.00001)">
          <path
             style="display:inline;fill:#737d81;fill-opacity:1;stroke:#323232;stroke-opacity:1"
             d="m 163.08953,765.44052 c -0.095,-1.1248 -1.3801,-5.2432 1.1407,-23.7818 2.5208,-18.5387 3.3757,-19.9229 4.8538,-26.7019 2.6849,-12.31399 5.2774,-23.69947 6.6731,-30.27737 1.3957,-6.5779 11.4408,-46.48936 12.7576,-49.21184 1.3169,-2.72247 2.5058,-4.0371 4.9146,-4.72216 2.4089,-0.68506 7.00271,-1.99544 20.90841,-4.32441 3.9031,-0.6537 12.3309,-2.34628 18.7285,-3.7613 6.3976,-1.41501 13.4064,-2.57274 15.575,-2.57274 3.4882,0 4.236,0.29295 6.4829,2.5398 2.13,2.13 2.5398,3.07801 2.5398,5.87528 0,3.88324 -1.3988,5.98096 -6.8735,10.30853 -4.8977,3.8714 -12.4723,6.18033 -29.2689,8.92187 -18.6914,3.05082 -18.9673,3.1433 -19.5598,6.55706 -0.2648,1.52574 -1.0681,5.48673 -1.7851,8.8022 l -2.3037,12.0281 10.6059,-2.98238 c 11.8236,-3.3248 16.4152,-4.69135 24.2086,-4.69135 6.1312,0 7.7894,0.39815 7.7894,6.49202 0,5.07707 -2.0183,6.33959 -8.0326,8.72629 -7.4371,2.95133 -12.472,4.10641 -19.295,6.66364 -6.823,2.55723 -10.3107,4.32639 -13.6588,6.12343 -2.6706,1.43336 -5.82491,2.87083 -6.30741,3.51848 -0.4825,0.64766 -1.523,3.58512 -1.988,6.52772 -1.9511,12.34639 -4.6716,27.44033 -6.0297,33.45523 -0.8001,3.5431 -1.4547,6.8052 -1.4547,7.2491 0,0.4439 3.2542,-1.0717 7.2316,-3.368 3.9773,-2.2964 9.00511,-4.9596 11.17291,-5.9183 2.1678,-0.9587 8.0737,-4.3385 13.1243,-7.5108 11.5265,-7.2397 16.0982,-9.1787 21.6952,-9.2018 5.3985,-0.022 7.2832,1.5292 7.2832,5.9954 0,3.8965 -1.3412,6.4132 -5.4228,10.1755 -3.7538,3.4601 -3.6615,3.3993 -16.2402,10.7087 -5.1357,2.9843 -12.3629,7.1894 -16.0606,9.3448 -5.8777,3.4261 -22.30121,10.5839 -32.37071,12.2032 -10.0695,1.6193 -10.3765,-1.878 -11.034,-3.1902 z"
             id="path4948"
             inkscape:connector-curvature="0"
             sodipodi:nodetypes="czzssssssssscsssssszsssssssssssssccc" />
          <path
             style="display:inline;fill:#737d81;fill-opacity:1;stroke:#323232;stroke-opacity:1"
             d="m 151.64987,714.04333 c -7.47553,31.92572 -11.6341,55.85232 -16.08966,57.79682 -4.45555,1.9446 -8.89191,0.1172 -11.08934,-2.5248 -2.19742,-2.6419 0.46439,-17.6033 4.03598,-36.0954 0.73334,-3.797 2.51567,-9.54068 3.25894,-12.9302 l 1.3514,-6.16277 -13.68565,-0.53033 -13.86244,0 c 0,0 -0.53033,1.59099 -1.97068,9.54147 -1.44035,7.95053 -7.176902,38.62603 -11.192882,42.88413 -4.07002,4.3155 -8.80068,4.3709 -11.93903,0.1398 -2.9299,-3.9501 0.01,-17.2814 4.31887,-41.48991 2.10309,-11.81482 5.46864,-25.79434 6.09176,-29.94298 3.45256,-22.98671 13.399812,-62.53634 17.179652,-68.30509 0.95384,-1.45574 1.76884,-1.72072 5.29253,-1.72072 3.64884,0 4.24342,0.80343 5.60456,2.11492 1.20313,1.15925 2.20031,2.90992 2.84578,5.34783 1.27477,4.8148 -0.53861,14.05532 -3.97991,29.48242 -1.41153,6.32783 -3.83716,13.49 -5.54873,22.29073 -1.70978,8.7916 -2.21261,9.62601 1.1278,9.97876 2.95933,0.31251 7.62921,-0.52556 10.84805,0.0138 4.32475,0.52279 8.23271,1.09364 12.10019,-0.0848 0.28296,-0.80273 0.67613,-2.24915 1.04978,-4.27009 1.02777,-5.55886 3.42294,-17.84025 9.07586,-34.14675 5.65292,-16.3065 10.24692,-22.92406 13.4332,-25.72166 3.19408,-2.80443 5.01281,-2.81619 7.7787,-0.0503 2.12569,2.12568 1.47644,4.85874 1.12289,9.74253 -0.30018,4.14658 -2.47369,12.44807 -3.12042,15.61484 -1.41478,6.9276 -7.57897,29.53981 -8.83209,36.78354 -1.25312,7.24373 -3.77827,16.15056 -5.20511,22.24417 z"
             id="path4950"
             inkscape:connector-curvature="0"
             sodipodi:nodetypes="czzscccszsssssssssssccszssszssc" />
          <path
             style="display:inline;fill:#737d81;fill-opacity:1;stroke:#323232;stroke-opacity:1"
             d="m 300.34697,678.63061 c -0.2042,0.47763 0.2418,1.01614 0.9909,1.19668 1.973,0.47547 37.5609,0.0823 38.0637,-0.42055 0.2328,-0.23273 0.7114,-7.92522 1.0638,-17.0944 0.3523,-9.16919 0.8624,-17.42759 1.1335,-18.35201 l 0.493,-1.68075 -11.6656,-0.12451 c -6.4162,-0.0685 -12.2136,-0.15251 -12.8833,-0.18675 -0.8583,-0.0439 -3.7252,2.75403 -9.5535,16.77506 -5.8283,14.02103 -7.4384,19.4096 -7.6425,19.88723 z m -6.529,-37.89986 c 3.0363,-5.60462 5.5205,-11.05453 5.5205,-12.1109 0,-3.04698 1.7157,-4.03572 9.4052,-5.42024 7.5562,-1.36054 15.9232,-1.07136 35.4972,0.34353 19.5741,1.41489 20.1525,7.04866 20.1493,17.99949 -0.059,10.59873 -0.062,14.98865 -0.062,14.98865 0,21.23137 -0.2835,23.00999 0.8384,24.13192 0.6587,0.65864 1.766,1.18614 4.7652,1.48278 2.9992,0.29665 3.8706,0.76302 5.2221,1.55243 1.3516,0.7894 3.6241,3.19988 4.061,3.92733 0.7849,1.30649 0.7007,1.89101 0.6348,2.46711 -0.7583,6.41768 -8.5478,10.88392 -15.5631,11.20036 -1.5199,0 -3.1128,0.42102 -3.5399,0.93559 -0.4271,0.51458 -1.4748,9.0024 -2.3283,18.86182 -2.5113,29.00918 -2.8606,31.86228 -4.5685,37.31308 -1.086,3.4661 -2.4466,6.0131 -4.0903,7.6567 -2.1334,2.1334 -2.9661,2.9943 -6.2219,2.9943 -3.3875,0 -4.2111,-0.8023 -5.7717,-2.9902 -1.6035,-2.2481 -1.4398,-3.0598 -1.3072,-11.3606 0.1532,-9.5889 1.8613,-29.42472 3.6293,-42.14408 0.5949,-4.28008 0.998,-7.85204 0.8956,-7.93771 -0.4603,-0.38531 -49.2365,1.15081 -50.2337,1.57796 -1.2822,0.54922 -4.683,5.3989 -15.3858,33.17343 -7.6186,19.7706 -20.69803,39.7182 -24.10723,41.5303 -3.4092,1.8121 -9.45659,0.2306 -11.10028,-2.0663 -1.27559,-1.7826 -1.98559,-7.3171 -1.04929,-10.055 2.2748,-6.652 16.3051,-42.02061 22.2982,-55.53778 2.6414,-5.95734 5.7657,-13.16149 6.943,-16.00922 1.1773,-2.84773 1.4617,-4.23891 2.4382,-6.56974 0.7179,-1.71379 8.6184,-20.14386 14.9701,-33.44067 6.3517,-13.29682 5.7931,-12.30691 8.0616,-16.49434 z"
             id="path4952"
             inkscape:connector-curvature="0"
             sodipodi:nodetypes="scscssczcssscszczcccssscssssssscszsszszscs" />
          <path
             style="display:inline;fill:#737d81;fill-opacity:1;stroke:#323232;stroke-opacity:1"
             d="m 387.58147,671.54886 c 0.229,-6.22586 0.4677,-7.25994 2.0698,-8.96403 2.0066,-2.13437 3.9308,-2.36127 9.6406,-1.13675 4.786,1.02642 6.5898,3.06352 7.9364,8.96301 2.0637,9.04108 4.8617,36.76776 5.3717,53.2315 l 0.5049,16.29651 10.1827,-21.24065 c 3.6792,-7.67446 8.7465,-16.89558 13.9388,-26.92576 4.0785,-7.87865 8.701,-16.37127 15.9391,-31.51891 4.8327,-10.11367 14.513,-27.43794 19.5994,-34.22807 5.3372,-7.12496 8.7096,-9.44033 13.7502,-9.44033 3.0759,0 4.409,0.39073 5.9988,1.75819 1.8281,1.57245 2.0318,2.2205 1.9289,6.13438 -0.1749,6.64647 -2.0699,11.49658 -8.9979,23.02905 -6.0851,10.12949 -10.8739,18.57217 -21.0183,37.05561 -2.5931,4.72479 -6.6387,11.95204 -8.9902,16.06055 -2.3514,4.10852 -8.576,15.70573 -13.8322,25.77163 -11.5181,22.05721 -17.1689,30.85661 -24.1053,37.53681 -5.0632,4.8761 -5.3608,5.0423 -9.0302,5.0423 -3.4492,0 -4.0946,-0.289 -7.0906,-3.1748 -5.2896,-5.095 -7.0958,-12.7175 -8.7176,-36.78981 -0.4429,-6.57366 -1.6245,-18.5061 -2.6259,-26.51658 -1.0014,-8.01047 -1.7045,-16.2618 -1.8887,-18.31719 -0.1693,-1.88815 -0.3448,-2.48052 -0.3942,-3.97574 -0.049,-1.49522 -0.3455,-3.88669 -0.1702,-8.65092 z"
             id="path4954"
             inkscape:connector-curvature="0"
             sodipodi:nodetypes="ssssscssssssssssssssssszs" />
          <path
             style="display:inline;fill:#737d81;fill-opacity:1;stroke:#323232;stroke-opacity:1"
             d="m 664.42695,677.11325 c -3.7408,7.41402 -7.277,14.19604 -9.6077,18.73837 -2.3306,4.54233 -6.2062,12.62781 -9.2728,19.21245 -3.0665,6.58463 -7.0914,15.66973 -8.9441,20.18913 -11.118,27.11942 -16.4068,33.38442 -23.2918,27.59102 -1.2521,-1.0535 -2.6693,-3.1544 -3.1494,-4.6687 -1.5703,-4.9526 -1.6092,-59.68762 -1.5853,-62.87333 0.024,-3.18571 0.1875,-10.13557 0.1767,-13.83324 -0.011,-3.69766 0.015,-10.9614 -0.2472,-12.55137 -0.4587,-2.77666 -0.8877,0.48525 -4.7825,11.15099 -4.0909,11.20267 -3.6066,11.18434 -5.8623,16.67723 -0.7862,1.91436 -4.66802,11.15115 -9.4926,22.3604 -7.36398,17.10919 -16.13146,37.6446 -20.46736,45.46148 -0.9743,1.7565 -1.95563,2.78688 -2.38614,3.08675 -2.3464,1.6344 -6.2862,2.05709 -8.6154,-0.71091 -1.6972,-2.0171 -1.9339,-2.9713 -1.9339,-7.7972 0,-7.0191 1.4121,-13.0269 6.0376,-25.68622 4.4681,-12.2284 10.6102,-27.78471 13.8221,-38.10744 3.2118,-10.32273 12.2669,-30.38411 20.1898,-46.4912 5.089,-10.34577 9.2527,-19.20675 9.2527,-19.69106 0,-2.13218 2.9279,-3.4638 8.5513,-3.88909 5.5016,-0.41609 5.7811,-0.35709 7.8937,1.66693 4.3649,4.18184 4.8669,7.40786 4.6482,29.86963 -0.108,11.09299 -0.053,26.00669 -0.089,36.39646 -0.036,10.38976 -0.025,11.44353 -0.3016,16.08054 -0.2386,4.0058 -0.1716,6.44289 0.149,5.41577 12.8825,-30.76475 28.2628,-55.82057 41.2353,-85.48288 3.5678,-8.22962 2.3815,-8.69071 8.6673,-14.59702 6.2857,-5.90631 11.2041,-4.05922 13.2615,-1.83928 4.2799,4.6181 2.6739,11.06921 -5.5781,27.49717 l -10.0869,20.08104 z"
             id="path4956"
             inkscape:connector-curvature="0"
             sodipodi:nodetypes="ccssszssszzssssszssssszcccczsccc" />
          <path
             sodipodi:nodetypes="czzssssssssscsssssszsssssssssssssccc"
             inkscape:connector-curvature="0"
             id="path4958"
             d="m 474.50007,765.2839 c -0.095,-1.1248 -1.3801,-5.2432 1.1407,-23.7818 2.5208,-18.53872 3.3757,-19.92292 4.8538,-26.70192 2.6849,-12.31399 5.2774,-23.69947 6.6731,-30.27737 1.3957,-6.5779 11.4408,-46.48936 12.7576,-49.21184 1.3169,-2.72247 2.5058,-4.0371 4.9146,-4.72216 2.4089,-0.68506 7.0027,-1.99544 20.9084,-4.32441 3.9031,-0.6537 12.3309,-2.34628 18.7285,-3.7613 6.3976,-1.41501 13.4064,-2.57274 15.575,-2.57274 3.4882,0 4.236,0.29295 6.4829,2.5398 2.13,2.13 2.5398,3.07801 2.5398,5.87528 0,3.88324 -1.3988,5.98096 -6.8735,10.30853 -4.8977,3.8714 -12.4723,6.18033 -29.2689,8.92187 -18.6914,3.05082 -18.9673,3.1433 -19.5598,6.55706 -0.2648,1.52574 -1.0681,5.48673 -1.7851,8.8022 l -2.3037,12.0281 10.6059,-2.98238 c 11.8236,-3.3248 16.4152,-4.69135 24.2086,-4.69135 6.1312,0 7.7894,0.39815 7.7894,6.49202 0,5.07707 -2.0183,6.33959 -8.0326,8.72629 -7.4371,2.95133 -12.472,4.10641 -19.295,6.66364 -6.823,2.55723 -10.3107,4.32639 -13.6588,6.12343 -2.6706,1.43336 -5.8249,2.87083 -6.3074,3.51848 -0.4825,0.64766 -1.523,3.58512 -1.988,6.52772 -1.9511,12.34639 -4.6716,27.44033 -6.0297,33.45523 -0.8001,3.54312 -1.4547,6.80522 -1.4547,7.24912 0,0.4439 3.2542,-1.0717 7.2316,-3.368 3.9773,-2.29641 9.0051,-4.95962 11.1729,-5.91832 2.1678,-0.9587 8.0737,-4.3385 13.1243,-7.5108 11.5265,-7.2397 16.0982,-9.17871 21.6952,-9.20181 5.3985,-0.0223 7.2832,1.52921 7.2832,5.99541 0,3.8965 -1.3412,6.4132 -5.4228,10.1755 -3.7538,3.46011 -3.6615,3.39931 -16.2402,10.70872 -5.1357,2.9843 -12.3629,7.1894 -16.0606,9.3448 -5.8777,3.4261 -22.3012,10.5839 -32.3707,12.2032 -10.0695,1.6193 -10.3765,-1.878 -11.034,-3.1902 z"
             style="display:inline;fill:#737d81;fill-opacity:1;stroke:#323232;stroke-opacity:1" />
        </g>
      </g>
    </g>
    <path
       style="opacity:0.306;fill:#4a5053;fill-opacity:1;fill-rule:nonzero;stroke:#737d81;stroke-width:0.35355341;stroke-opacity:1"
       d=""
       id="path5028"
       inkscape:connector-curvature="0" />
  </g>
</svg>
