<?xml version="1.0" encoding="UTF-8" standalone="no"?>
<!-- Created with Inkscape (http://www.inkscape.org/) -->

<svg
   xmlns:dc="http://purl.org/dc/elements/1.1/"
   xmlns:cc="http://creativecommons.org/ns#"
   xmlns:rdf="http://www.w3.org/1999/02/22-rdf-syntax-ns#"
   xmlns:svg="http://www.w3.org/2000/svg"
   xmlns="http://www.w3.org/2000/svg"
   xmlns:xlink="http://www.w3.org/1999/xlink"
   xmlns:sodipodi="http://sodipodi.sourceforge.net/DTD/sodipodi-0.dtd"
   xmlns:inkscape="http://www.inkscape.org/namespaces/inkscape"
   width="66.550003mm"
   height="43.549999mm"
   viewBox="0 0 235.80695 154.31092"
   id="svg2"
   version="1.1"
   inkscape:version="0.91 r13725"
   sodipodi:docname="GamingHeavenLogo.svg">
  <title
     id="title6665">GamingHeaven-OnlineShop-Logo</title>
  <defs
     id="defs4">
    <linearGradient
       inkscape:collect="always"
       id="linearGradient4577">
      <stop
         style="stop-color:#11acaf;stop-opacity:1"
         offset="0"
         id="stop4579" />
      <stop
         style="stop-color:#4a5053;stop-opacity:1"
         offset="1"
         id="stop4581" />
    </linearGradient>
    <linearGradient
       inkscape:collect="always"
       id="linearGradient4571">
      <stop
         style="stop-color:#11acaf;stop-opacity:1"
         offset="0"
         id="stop4573" />
      <stop
         style="stop-color:#4a5053;stop-opacity:1"
         offset="1"
         id="stop4575" />
    </linearGradient>
    <linearGradient
       inkscape:collect="always"
       xlink:href="#linearGradient4577"
       id="linearGradient4379"
       x1="390.00003"
       y1="643.86218"
       x2="391.50003"
       y2="725.36218"
       gradientUnits="userSpaceOnUse"
       gradientTransform="translate(-12.020816,-190.91884)" />
    <linearGradient
       inkscape:collect="always"
       xlink:href="#linearGradient4571"
       id="linearGradient4381"
       x1="390.00003"
       y1="643.86218"
       x2="391.50003"
       y2="725.36218"
       gradientUnits="userSpaceOnUse"
       gradientTransform="translate(-12.020816,-190.91884)" />
  </defs>
  <sodipodi:namedview
     id="base"
     pagecolor="#ffffff"
     bordercolor="#666666"
     borderopacity="1.0"
     inkscape:pageopacity="0.0"
     inkscape:pageshadow="2"
     inkscape:zoom="1.9999999"
     inkscape:cx="253.5683"
     inkscape:cy="49.474654"
     inkscape:document-units="px"
     inkscape:current-layer="layer1"
     showgrid="false"
     inkscape:window-width="1368"
     inkscape:window-height="849"
     inkscape:window-x="-8"
     inkscape:window-y="-8"
     inkscape:window-maximized="1"
     fit-margin-top="0"
     fit-margin-left="0"
     fit-margin-right="0"
     fit-margin-bottom="0" />
  <metadata
     id="metadata7">
    <rdf:RDF>
      <cc:Work
         rdf:about="">
        <dc:format>image/svg+xml</dc:format>
        <dc:type
           rdf:resource="http://purl.org/dc/dcmitype/StillImage" />
        <dc:title>GamingHeaven-OnlineShop-Logo</dc:title>
        <dc:date>17.11.2020</dc:date>
        <dc:creator>
          <cc:Agent>
            <dc:title>Sebastian Budde</dc:title>
          </cc:Agent>
        </dc:creator>
        <dc:contributor>
          <cc:Agent>
            <dc:title>Liza Meyer</dc:title>
          </cc:Agent>
        </dc:contributor>
      </cc:Work>
    </rdf:RDF>
  </metadata>
  <g
     inkscape:groupmode="layer"
     id="layer8"
     inkscape:label="Hintergrund"
     style="display:inline"
     transform="translate(-67.863712,-218.04493)" />
  <g
     inkscape:groupmode="layer"
     id="layer3"
     inkscape:label="Ramen"
     style="display:inline"
     transform="translate(-67.863712,-218.04493)" />
  <g
     inkscape:groupmode="layer"
     id="layer2"
     inkscape:label="Filling"
     style="display:inline"
     transform="translate(-67.863712,-218.04493)" />
  <g
     inkscape:label="Konturen"
     inkscape:groupmode="layer"
     id="layer1"
     style="display:inline"
     transform="translate(-67.863712,-218.04493)">
    <path
       style="opacity:0;fill:#52acaf;fill-opacity:0.94117647;stroke:#4a5053;stroke-width:0.35355341;stroke-opacity:1"
       d="m 118.5985,371.86201 c -25.473519,-0.12952 -47.147641,-0.35831 -48.164712,-0.50844 -1.766145,-0.26069 -1.861443,-0.33034 -2.12132,-1.55035 -0.149656,-0.70257 -0.272101,-76.80172 -0.272101,-169.10921 0,-126.930267 0.100033,-167.931842 0.410467,-168.24227 0.824273,-0.824259 108.865876,-1.087399 365.340536,-0.889802 139.52101,0.107492 254.81686,0.289592 256.21301,0.404666 2.38355,0.196459 2.55951,0.269616 2.88344,1.198854 0.2244,0.643703 0.22178,10.489785 -0.007,28.167845 -0.22496,17.349117 -0.24487,58.440927 -0.055,113.622027 0.31392,91.2343 0.27209,178.98368 -0.0905,189.73618 l -0.21641,6.41874 -1.46562,0.2099 c -5.37786,0.77017 -445.58968,1.18686 -572.45441,0.54186 z m 531.77936,-3.36808 38.92588,-0.23522 0.21652,-72.52167 c 0.11907,-39.88692 0.45067,-103.54598 0.73691,-141.46459 0.2862,-37.9186 0.57077,-79.655915 0.63233,-92.749589 l 0.11197,-23.806679 -0.77563,-0.629095 C 689.57357,36.558043 688.42085,36.419839 682.978,36.218102 667.28868,35.636583 536.31333,35.314696 312.84633,35.308458 l -240.976413,-0.0067 -0.323785,87.416082 c -0.178081,48.07885 -0.244235,104.91698 -0.147008,126.30696 0.09723,21.38998 0.176777,57.02912 0.176777,79.19809 l 0,40.30723 269.938029,0.0995 c 148.46591,0.0547 287.45468,-0.006 308.86393,-0.13569 z"
       id="path4672"
       inkscape:connector-curvature="0" />
    <g
       id="g4962"
       transform="translate(9.1923885,-260.2153)" />
    <g
       id="g3439"
       transform="translate(-164.39645,115.14644)">
      <g
         transform="matrix(0.99991833,0.01383798,-0.01278035,1.0826662,238.05776,-341.21763)"
         id="g6596">
        <path
           style="display:inline;opacity:1;fill:#000000;fill-opacity:1;fill-rule:nonzero"
           d="m 6.3697989,447.05276 c -2.066919,-0.32693 -3.9333171,-1.39021 -4.1430491,-2.09116 -1.1624872,-3.88519 14.4558842,-28.33373 18.5610212,-31.56283 34.769035,-0.35837 53.532979,-0.39592 98.213689,0.0277 0.9379,0.51201 2.80255,2.29228 2.62303,2.91681 -7.8787,12.50706 -11.49399,18.84474 -18.67837,30.15439 -34.027594,0.17087 -65.119636,0.5575 -96.5763211,0.55509 z m 93.9643211,-5.82927 c 5.15223,-7.78686 9.88527,-15.10664 14.27412,-22.62569 -31.805023,-0.46141 -58.269089,-0.4091 -93.306243,-0.15158 -2.694913,6.23229 -10.047795,17.10151 -12.7396999,23.33584 0.077342,0.54282 0.7975914,0.38289 1.5267219,0.5575 32.594879,-0.36545 58.328746,-0.85063 90.245101,-1.11607 z"
           id="path5010"
           inkscape:connector-curvature="0"
           sodipodi:nodetypes="csccccccccccc" />
        <path
           style="display:inline;opacity:1;fill:#000000;fill-opacity:1;fill-rule:nonzero"
           d="M 30.728388,549.63602 C 25.144421,543.81936 12.078859,529.03717 7.2282071,523.19714 l -1.2254448,-7.3586 c -0.3279802,-19.47443 -0.9959046,-43.34596 -0.169535,-61.82888 11.4472167,-0.83459 27.0332397,-1.61047 38.7264297,0.14381 1.026716,0.25097 1.201068,1.18431 1.406653,2.21239 1.180006,20.53884 1.248878,30.97173 1.84865,52.63578 0.202724,0.24642 38.407884,-2.29831 38.704265,-2.57192 0.138997,-8.96323 -0.291349,-16.09018 0.45235,-25.0973 0.419685,-1.02555 1.329281,-1.70404 3.562571,-2.06402 3.241908,-0.52255 14.972184,-1.2864 21.690074,-1.2867 4.8654,-1.8e-4 6.31188,0.4511 7.36088,1.09946 0.64488,0.39856 2.0072,2.62019 2.11071,2.95083 0.47773,20.38923 1.04656,32.17069 1.47885,52.9875 -2.25808,4.40055 -4.52921,8.2808 -6.92374,12.67592 -24.349243,0.76082 -53.665784,1.38359 -85.522532,1.94059 z m 83.280202,-6.756 c 1.16774,-2.71275 1.98814,-4.55997 3.35724,-7.03933 -0.16232,-8.82749 -0.70824,-49.04997 -1.04361,-52.70355 -8.83319,0.44383 -16.920544,0.70597 -24.547102,1.28194 l 0.179239,12.54269 0.116738,14.91769 -7.616851,0.12231 c -3.847427,0.0618 -12.526221,0.80741 -19.13767,1.18644 -6.611449,0.37903 -18.320521,0.8151 -20.596549,0.81627 l -1.200729,-1.623 c -0.951701,-21.99119 -1.419289,-37.34606 -2.093442,-53.75515 -11.010366,0.0165 -19.153034,0.0559 -31.127888,0.31766 0.468155,18.74005 0.769007,37.38634 1.37931,56.17598 0.367675,4.5521 1.222979,5.66484 2.409124,6.6457 6.261279,7.28849 10.856846,16.00912 17.973433,22.15793 34.579821,-0.41112 56.399679,-0.62341 81.948757,-1.04358 z"
           id="path5012"
           inkscape:connector-curvature="0"
           sodipodi:nodetypes="cccccccccsscccccccccccssccccccccc" />
        <path
           style="display:inline;fill:url(#linearGradient4379);fill-opacity:1;stroke:none;stroke-opacity:1"
           d="m 22.384339,418.43431 c 31.296421,-0.002 60.857847,-0.22648 91.489861,0.375 -4.6059,7.28712 -8.99945,15.00354 -14.173186,21.87501 -18.918519,0.46447 -45.158237,0.74329 -61.908681,0.85556 -12.545535,0.0841 -18.472086,0.70736 -29.0745488,0.17037 5.1936098,-7.95868 9.1831498,-15.95904 13.6665548,-23.27594 z"
           id="path4139"
           inkscape:connector-curvature="0"
           sodipodi:nodetypes="cccscc" />
        <path
           style="display:inline;fill:url(#linearGradient4381);fill-opacity:1;stroke:none;stroke-opacity:1"
           d="M 32.69272,544.08606 C 25.265288,535.64113 17.854567,526.66692 12.102866,519.27588 11.104848,501.1616 10.993126,480.90317 10.41952,459.2579 c 9.9403,-0.15445 20.802141,-0.306 30.733054,-0.64632 1.231396,14.33666 0.901986,42.53849 1.723568,54.37618 0.305295,0.71379 1.303481,1.08347 2.044132,1.41027 14.37156,0.29045 32.271172,-2.10542 47.14577,-1.47786 0.35776,-10.06136 -0.60634,-18.908 0.19728,-28.38334 7.26961,-0.36132 16.500676,-1.23469 23.578376,-0.84367 0.71361,18.31191 1.2975,39.74655 1.47614,52.46875 -2.15511,2.75428 -3.97692,6.3687 -5.13005,6.50955 -24.931049,0.81616 -56.752663,0.96091 -79.49507,1.4146 z"
           id="path4141"
           inkscape:connector-curvature="0"
           sodipodi:nodetypes="cccccccccccc" />
        <g
           id="g5048">
          <g
             id="g4991">
            <path
               sodipodi:nodetypes="szcsssscscsssczzsssssssszsssszcccsszcccccscscsscsscssssssssscssccscssscccsscccccssscssccscsccsczsssscccssccsccssccscsccsccccssccccccccssccccsccccssccccs"
               inkscape:connector-curvature="0"
               id="path4134"
               d="m 68.250156,506.87893 c 14.422392,-0.4404 16.892582,-0.7807 17.072612,-1.6252 0.18003,-0.84448 0.32874,-6.95824 0.22488,-13.42593 -0.17263,-10.75081 -0.069,-11.84706 1.20836,-12.78107 0.76845,-0.56191 2.089266,-1.0316 2.935156,-1.04376 0.84589,-0.0122 7.57195,-0.32757 14.946806,-0.7009 11.86339,-0.60056 13.64718,-0.538 15.47687,0.54283 1.13742,0.6719 1.86342,1.85748 2.09946,2.4726 0.23604,0.61512 1.03379,13.31344 1.28662,28.38053 l 0.4597,27.3947 -3.16351,5.8885 c -1.73994,3.2387 -3.4443,6.1782 -3.78746,6.5323 -0.34317,0.354 -13.17527,0.7945 -28.515776,0.979 -15.340508,0.1845 -28.312018,0.4726 -34.04472,0.8317 0,0 -22.530947,0.571 -23.641109,0.4254 -1.110163,-0.1456 -1.576546,-0.3009 -2.202328,-0.7071 -0.625782,-0.4063 -1.442523,-1.6123 -1.442523,-1.6123 0.692523,0.792 -11.408794,-12.8855 -12.346722,-13.9485 -0.656466,-0.744 -8.9186788,-10.8266 -8.9186788,-10.8266 -0.63036,-1.1557 -1.94267,-38.31446 -1.949166,-56.29435 -0.0034,-9.48053 0.256682,-13.54042 0.909311,-14.19305 0.673999,-0.674 6.0232198,-0.91411 20.3648218,-0.91411 19.17411,0 19.469751,0.0235 20.789465,1.65329 1.188358,1.46756 1.39282,4.02705 1.820049,22.78358 0.538532,23.64306 0.95984,30.51784 1.234567,30.77414 0.274727,0.2562 19.183315,-0.5857 19.183315,-0.5857 z M 27.547165,448.34667 c -25.7360138,0.19264 -26.3318378,0.0952 -26.3318378,-4.30714 0,-1.89512 2.246308,-6.49092 8.658626,-17.71502 4.7622448,-8.33582 7.6788428,-12.31091 10.5798858,-13.60678 2.901044,-1.29588 5.770148,-0.69572 26.415977,-0.78231 2.473963,0.0487 5.820349,-0.0878 8.185022,-0.0749 l 6.213031,0.0592 27.990515,0.15133 c 25.918726,0.12023 30.400726,0.3196 31.934346,1.32447 0.98121,0.64291 1.78401,1.83224 1.78401,2.64295 0,0.81072 -2.35064,5.24123 -5.22364,9.84559 -2.87301,4.60436 -5.28064,8.6447 -6.34857,10.43655 -1.06793,1.79186 -3.10234,4.87336 -4.61916,7.10118 l -2.85719,4.2407 -35.762739,0.18256 z m 43.512891,99.49096 c 34.947794,-0.4903 43.326694,-0.7695 44.479844,-1.4822 0.41466,-0.2563 2.03252,-3.0457 3.59526,-6.1987 l 2.84134,-5.7328 -0.50102,-26.4254 c 0,0 -0.592,-26.10023 -1.11973,-26.91141 -0.39536,-0.60772 -1.26981,-1.33664 -1.26981,-1.33664 -1.79139,-1.16267 -2.65035,-0.99429 -15.15779,-0.55505 -8.601386,0.30206 -13.967986,0.80388 -14.894686,1.39274 -1.339816,0.85139 -1.452066,1.89814 -1.493996,13.9321 l -0.0453,13.01156 -12.48425,0.8434 c -6.866342,0.4638 -15.942422,0.968 -20.169071,1.1205 l -7.684817,0.2771 -0.655106,-19.97236 C 46.14385,478.91431 45.773341,466.82222 45.468758,462.71621 l -0.553785,-7.46547 -2.241008,-0.47642 c -1.232554,-0.26204 -9.679208,-0.5162 -18.770345,-0.56481 -13.087756,-0.07 -16.7044448,0.12261 -17.3703428,0.92497 -1.004705,1.2106 0.361492,64.03205 1.452223,66.77715 0.367302,0.9244 3.5323468,4.9592 3.9162368,5.3489 0.696676,0.7071 16.206677,18.3435 16.952684,19.2865 1.104854,1.3965 2.031038,2.5213 5.976018,2.1392 2.259683,-0.2189 18.563012,-0.6007 36.229617,-0.8486 z m -40.365902,-3.8835 c -1.236324,-2.5821 -17.672012,-22.05 -18.779042,-22.8672 -1.058363,-0.7813 -1.594779,-11.0691 -1.9237338,-44.18222 l -0.185522,-18.67507 16.1765128,-0.20112 16.176512,-0.20112 0.429972,6.92414 c 0.236485,3.80828 0.634723,16.00023 0.884972,27.09322 0.25025,11.09298 0.759656,20.48717 1.132012,20.87587 0.425329,0.4441 6.856953,0.3243 17.300629,-0.3222 9.14299,-0.5661 19.480902,-1.0835 22.973142,-1.15 l 6.349516,-0.1208 -0.25522,-13.87439 -0.25522,-13.8744 3.99022,-0.4042 c 2.19463,-0.22231 8.232786,-0.57731 13.418136,-0.7889 l 9.4279,-0.38469 0.52985,27.05848 0.52985,27.0584 -2.1788,3.942 -2.17881,3.942 -17.863476,0.3129 c -9.824906,0.172 -28.464728,0.5443 -41.42182,0.8272 -23.121846,0.5048 -23.571674,0.4865 -24.27758,-0.9879 z m 45.968424,-1.4201 c 15.406916,-0.2744 29.849762,-0.5306 32.095212,-0.5695 3.94454,-0.068 4.14217,-0.1717 5.8434,-3.0586 l 1.76078,-2.988 -0.43826,-25.72 c -0.24105,-14.14597 -0.57375,-25.85543 -0.73932,-26.021 -0.16557,-0.16557 -5.27618,-0.0207 -11.35691,0.32188 l -11.055866,0.62292 -0.0243,14.19305 -0.0243,14.19305 -2.2852,-0.1405 c -3.666926,-0.2087 -7.025646,-0.1382 -10.228576,0 -3.20294,0.1427 -9.690862,0.5628 -14.004802,0.8112 -4.313938,0.2483 -10.574079,0.6544 -13.911422,0.9024 -7.122823,0.5292 -9.085317,0.062 -10.015598,-2.3849 -0.3764,-0.99 -0.705603,-9.95331 -0.731562,-19.91842 -0.02596,-9.96512 -0.249306,-21.5709 -0.496327,-25.79062 l -0.449068,-7.67222 -14.650321,0.2022 -14.650322,0.2022 0.01294,5.97602 c 0.0071,3.28681 0.29178,16.56478 0.632575,29.5066 0.607221,23.05944 0.432211,24.09084 2.074295,25.55494 6.233589,6.3926 14.373779,17.5128 18.914709,22.4145 0.616277,0.2103 5.294913,0.3326 8.992575,0.1639 3.697663,-0.1687 19.328689,-0.5312 34.735618,-0.8056 z m -4.145492,-96.62993 29.974694,0 3.95996,-6.16277 c 9.60939,-14.95482 14.38376,-23.12681 14.03798,-24.02789 -0.20493,-0.53406 -1.45197,-1.18689 -2.77119,-1.45073 -1.31922,-0.26384 -22.872326,-0.47972 -47.895794,-0.47972 -39.752871,0 -46.181864,-0.0128 -48.333449,0.1295 -1.512262,0.0482 -5.536673,5.29445 -9.796079,12.52843 -3.1659088,5.37683 -9.5110288,16.19227 -8.5824828,18.0143 1.196476,1.93594 4.392434,2.20796 21.5693928,1.83584 9.824248,-0.21282 31.350885,-0.38696 47.836968,-0.38696 z M 7.9821492,441.73057 c 0.02409,-0.78594 2.9813278,-6.47125 6.5716428,-12.63402 l 6.527846,-11.20504 47.212538,-0.19233 c 34.941284,-0.14233 47.212514,0.0289 47.212514,0.65885 0,0.46814 -3.2265,6.01714 -7.17,12.33111 l -7.16999,11.47995 -13.559312,7.5e-4 c -7.45762,5e-4 -28.434007,0.22336 -46.614179,0.49523 -32.2376288,0.48209 -33.0537758,0.45898 -33.0110598,-0.93467 z m 91.5068548,-1.41218 c 0.43443,-0.12815 3.264646,-4.21817 6.289376,-9.08893 3.02472,-4.87077 5.98541,-9.61228 6.57931,-10.53669 l 1.07982,-1.68076 -45.466304,0.002 -45.466308,0.002 -3.706055,6.53383 c -2.038331,3.59362 -4.982658,8.64562 -6.542951,11.22667 l -2.8368948,4.69284 44.6400758,-0.45942 c 24.552045,-0.25268 44.995511,-0.56427 45.429931,-0.69242 z"
               style="display:inline;fill:#000000;fill-opacity:1" />
          </g>
        </g>
      </g>
      <g
         transform="matrix(1.3073159,-0.07987397,0.06092693,1.0241493,242.48713,-110.27989)"
         id="g6634">
        <g
           id="g6625"
           transform="translate(-1.0000001,-224.00001)">
          <g
             transform="translate(-7.0000007,-182.00001)"
             id="g5076">
            <path
               sodipodi:nodetypes="czzscccszsssssssssssccszssszssc"
               inkscape:connector-curvature="0"
               id="path4950"
               d="m 151.64987,714.04333 c -7.47553,31.92572 -11.6341,55.85232 -16.08966,57.79682 -4.45555,1.9446 -8.89191,0.1172 -11.08934,-2.5248 -2.19742,-2.6419 0.46439,-17.6033 4.03598,-36.0954 0.73334,-3.797 2.51567,-9.54068 3.25894,-12.9302 l 1.3514,-6.16277 -13.68565,-0.53033 -13.86244,0 c 0,0 -0.53033,1.59099 -1.97068,9.54147 -1.44035,7.95053 -7.176902,38.62603 -11.192882,42.88413 -4.07002,4.3155 -8.80068,4.3709 -11.93903,0.1398 -2.9299,-3.9501 0.01,-17.2814 4.31887,-41.48991 2.10309,-11.81482 5.46864,-25.79434 6.09176,-29.94298 3.45256,-22.98671 13.399812,-62.53634 17.179652,-68.30509 0.95384,-1.45574 1.76884,-1.72072 5.29253,-1.72072 3.64884,0 4.24342,0.80343 5.60456,2.11492 1.20313,1.15925 2.20031,2.90992 2.84578,5.34783 1.27477,4.8148 -0.53861,14.05532 -3.97991,29.48242 -1.41153,6.32783 -3.83716,13.49 -5.54873,22.29073 -1.70978,8.7916 -2.21261,9.62601 1.1278,9.97876 2.95933,0.31251 7.62921,-0.52556 10.84805,0.0138 4.32475,0.52279 8.23271,1.09364 12.10019,-0.0848 0.28296,-0.80273 0.67613,-2.24915 1.04978,-4.27009 1.02777,-5.55886 3.42294,-17.84025 9.07586,-34.14675 5.65292,-16.3065 10.24692,-22.92406 13.4332,-25.72166 3.19408,-2.80443 5.01281,-2.81619 7.7787,-0.0503 2.12569,2.12568 1.47644,4.85874 1.12289,9.74253 -0.30018,4.14658 -2.47369,12.44807 -3.12042,15.61484 -1.41478,6.9276 -7.57897,29.53981 -8.83209,36.78354 -1.25312,7.24373 -3.77827,16.15056 -5.20511,22.24417 z"
               style="display:inline;fill:#737d81;fill-opacity:1;stroke:#323232;stroke-opacity:1" />
          </g>
        </g>
      </g>
    </g>
    <path
       style="opacity:0.306;fill:#4a5053;fill-opacity:1;fill-rule:nonzero;stroke:#737d81;stroke-width:0.35355341;stroke-opacity:1"
       d=""
       id="path5028"
       inkscape:connector-curvature="0" />
  </g>
</svg>
