<?xml version="1.0" standalone="no"?>
<!DOCTYPE svg PUBLIC "-//W3C//DTD SVG 20010904//EN"
 "http://www.w3.org/TR/2001/REC-SVG-20010904/DTD/svg10.dtd">
<svg version="1.0" xmlns="http://www.w3.org/2000/svg"
 width="1008.000000pt" height="1008.000000pt" viewBox="0 0 1008.000000 1008.000000"
 preserveAspectRatio="xMidYMid meet">
<metadata>
Created by potrace 1.11, written by Peter Selinger 2001-2013
</metadata>
<g transform="translate(0.000000,1008.000000) scale(0.100000,-0.100000)"
fill="#000000" stroke="none">
<path d="M9708 8305 c-2 -2 -15 -6 -29 -8 -91 -17 -259 -148 -374 -292 -36
-45 -140 -200 -159 -235 -7 -14 -22 -41 -33 -60 -57 -100 -72 -130 -65 -130 4
0 2 -4 -3 -8 -9 -6 -35 -59 -121 -247 -12 -27 -39 -93 -59 -145 -21 -52 -43
-108 -50 -125 -7 -16 -20 -52 -30 -80 -9 -27 -21 -59 -25 -70 -24 -58 -89
-255 -84 -255 4 0 2 -6 -3 -12 -12 -15 -92 -279 -143 -468 -14 -51 -33 -123
-36 -135 -19 -83 -56 -246 -59 -265 -3 -14 -7 -35 -10 -47 -12 -52 -14 -62
-19 -94 -25 -148 -50 -264 -63 -296 -14 -34 -19 -37 -108 -52 -119 -21 -193
-23 -555 -18 -136 1 -250 -5 -380 -21 -30 -3 -113 -7 -183 -7 -154 0 -159 3
-152 99 3 33 7 72 10 86 11 58 15 77 20 105 3 17 7 41 10 55 21 105 25 128 29
150 2 14 14 66 26 115 12 50 24 97 25 105 2 8 8 30 14 48 5 17 7 32 4 32 -3 0
0 7 7 15 7 8 10 15 7 15 -4 0 0 18 8 40 8 22 12 40 10 40 -3 0 2 17 9 38 8 20
29 91 46 157 18 66 34 127 37 135 3 8 8 24 10 35 2 11 8 38 14 60 6 22 13 49
15 60 3 11 9 40 14 65 17 77 20 89 24 113 12 60 28 134 33 147 3 8 7 24 8 35
3 25 12 72 20 105 10 47 49 274 60 345 3 23 8 52 11 65 13 64 11 310 -3 371
-34 151 -123 270 -255 343 -86 47 -176 58 -343 42 -178 -17 -212 -34 -279
-139 -20 -32 -35 -57 -32 -57 2 0 -8 -26 -23 -57 -16 -32 -31 -69 -35 -83 -4
-14 -11 -34 -16 -45 -12 -29 -35 -89 -36 -95 0 -3 -3 -12 -7 -20 -10 -28 -40
-125 -39 -127 1 -2 -4 -20 -12 -40 -15 -39 -45 -137 -52 -163 -2 -8 -10 -37
-18 -65 -37 -126 -57 -199 -86 -310 -17 -66 -34 -127 -37 -135 -3 -8 -5 -19
-4 -24 1 -5 -1 -16 -5 -25 -4 -9 -9 -25 -11 -35 -2 -11 -11 -47 -19 -80 -9
-34 -18 -68 -19 -76 -2 -8 -4 -16 -5 -17 -3 -3 -4 -7 -13 -53 -8 -41 -8 -40
-42 -185 -34 -143 -34 -144 -41 -184 -3 -19 -10 -45 -15 -58 -5 -13 -8 -27 -8
-31 1 -4 1 -9 -1 -12 -1 -3 -3 -16 -6 -30 -2 -14 -13 -65 -24 -115 -10 -49
-21 -102 -24 -118 -2 -15 -7 -35 -10 -45 -3 -9 -7 -33 -10 -52 -3 -19 -8 -48
-11 -65 -27 -147 -38 -203 -41 -220 -8 -39 -13 -71 -20 -120 -3 -27 -8 -57 -9
-67 -2 -9 -7 -38 -11 -65 -3 -26 -8 -57 -11 -68 -2 -11 -6 -38 -8 -60 -4 -34
-13 -85 -29 -170 -2 -11 -7 -36 -10 -55 -4 -19 -13 -63 -21 -96 -8 -34 -16
-73 -19 -85 -4 -26 -19 -101 -21 -109 -3 -12 -16 -76 -19 -90 -1 -8 -6 -26
-11 -40 -4 -14 -9 -38 -10 -55 -2 -16 -4 -30 -5 -30 -2 0 -6 -18 -14 -65 -4
-19 -9 -43 -12 -53 -3 -10 -7 -30 -9 -45 -3 -15 -7 -38 -10 -52 -3 -14 -7 -38
-10 -55 -3 -16 -8 -41 -10 -55 -7 -32 -9 -47 -29 -150 -8 -47 -18 -98 -21
-115 -3 -16 -8 -46 -11 -65 -4 -33 -39 -245 -49 -300 -3 -14 -10 -54 -15 -90
-11 -68 -17 -101 -24 -135 -2 -11 -9 -51 -15 -90 -17 -108 -19 -120 -21 -120
-1 0 -3 -13 -4 -30 -2 -16 -7 -50 -11 -75 -4 -25 -9 -56 -10 -70 -2 -14 -4
-25 -5 -25 -2 0 -5 -25 -14 -94 -6 -52 -16 -126 -21 -159 -15 -97 -23 -321
-15 -422 7 -85 38 -159 89 -208 116 -114 277 -150 454 -102 26 7 47 17 47 23
0 6 3 7 7 4 3 -4 27 5 52 20 86 50 152 108 190 168 38 61 101 209 128 300 8
28 17 57 20 65 3 8 7 20 8 25 2 6 17 61 34 123 18 61 34 121 36 132 2 11 11
46 19 78 16 64 72 311 80 355 2 15 7 35 10 45 3 9 7 34 11 56 3 21 7 41 9 45
3 3 7 27 11 51 8 51 13 75 15 75 1 0 3 9 5 20 1 11 10 61 19 110 10 50 19 104
22 120 3 17 8 41 10 55 3 14 7 39 10 55 2 17 11 66 19 110 20 110 23 127 40
230 9 50 18 97 22 105 3 8 7 30 9 48 6 57 20 72 67 73 23 0 62 2 87 4 25 3 95
7 155 9 61 3 110 6 110 7 0 0 27 2 60 4 33 2 103 6 155 9 52 4 156 9 230 11
257 10 435 16 450 15 19 0 73 1 130 4 25 2 48 1 51 -1 4 -1 0 -29 -7 -60 -7
-32 -15 -69 -18 -83 -17 -86 -53 -232 -81 -330 -2 -8 -9 -31 -14 -50 -5 -19
-17 -62 -26 -95 -10 -33 -19 -68 -21 -78 -2 -10 -5 -26 -8 -35 -3 -9 -8 -33
-11 -52 -3 -19 -8 -42 -10 -50 -2 -8 -6 -31 -9 -50 -3 -19 -7 -44 -10 -55 -7
-33 -35 -187 -41 -225 -3 -19 -8 -42 -10 -50 -2 -8 -7 -37 -11 -65 -3 -27 -8
-59 -10 -70 -2 -11 -6 -33 -9 -50 -3 -16 -7 -43 -10 -60 -9 -49 -15 -88 -20
-125 -2 -19 -6 -48 -9 -65 -6 -40 -15 -101 -20 -150 -3 -22 -8 -58 -10 -80
-29 -222 -22 -448 16 -518 48 -91 247 -171 423 -169 121 1 262 37 312 80 102
90 196 330 317 817 42 170 82 339 92 395 3 14 11 50 19 80 8 31 17 73 21 95 3
22 8 43 11 48 2 4 6 18 9 32 2 13 20 95 40 182 20 87 37 167 40 178 2 11 15
72 29 135 15 63 28 124 31 135 2 11 6 29 8 40 2 11 21 92 41 180 20 88 39 170
41 182 2 12 8 33 13 45 5 13 9 26 9 31 0 4 6 32 12 62 6 30 11 58 12 62 0 5 4
15 9 24 4 9 11 30 14 47 3 16 17 74 31 128 15 55 28 106 29 114 2 8 4 15 5 15
1 0 3 9 5 21 3 11 16 65 29 120 14 54 27 110 30 124 2 14 9 46 15 73 6 26 14
64 17 85 3 20 7 45 10 54 3 10 7 30 10 45 2 16 7 44 11 63 3 19 7 42 9 50 3
18 17 83 19 90 4 16 48 204 50 218 2 9 4 18 5 20 2 1 3 5 4 10 1 4 8 30 15 58
7 29 13 58 15 65 1 8 5 23 9 34 3 11 9 31 11 45 3 14 14 59 25 100 39 149 133
515 136 530 2 8 9 35 16 60 7 25 14 52 15 60 2 8 13 53 24 100 12 47 23 95 26
108 2 12 6 32 8 45 3 12 7 31 10 42 21 89 28 123 32 145 3 14 14 61 24 105 15
66 26 112 35 155 1 3 4 27 9 53 4 27 9 59 12 70 17 91 25 374 11 430 -14 59
-70 137 -97 137 -5 0 -10 3 -10 8 0 8 -93 57 -130 68 -27 7 -107 14 -112 9z"/>
<path d="M975 8235 c-28 -7 -66 -19 -86 -29 -74 -35 -191 -170 -284 -326 -21
-36 -49 -81 -62 -101 -13 -19 -23 -40 -23 -47 0 -7 -4 -12 -8 -12 -4 0 -13
-12 -19 -27 -6 -16 -27 -55 -46 -88 -144 -257 -360 -687 -372 -745 -2 -8 -7
-33 -13 -55 -8 -36 -8 -54 2 -117 6 -42 58 -81 124 -93 15 -3 38 -7 52 -10 49
-10 218 -18 402 -19 104 0 188 -3 188 -6 0 -3 52 -5 115 -5 63 0 115 4 115 8
0 5 6 5 12 1 17 -11 628 -11 628 -1 0 5 5 5 11 1 7 -4 514 -9 1128 -11 614 -2
1227 -5 1363 -6 l247 -3 18 33 c10 18 21 33 25 33 5 0 7 3 6 8 -1 4 18 39 43
77 101 155 201 319 299 490 57 99 118 205 136 235 18 30 44 78 59 105 15 28
30 52 34 55 3 3 14 21 25 40 10 19 36 69 59 110 60 111 109 211 118 242 18 63
-51 158 -124 172 -132 25 -426 39 -1027 51 -489 10 -778 15 -1005 20 -132 3
-391 7 -575 10 -184 3 -477 8 -650 11 -350 5 -400 5 -412 -2 -4 -3 -8 -2 -8 3
0 13 -438 11 -495 -2z"/>
<path d="M677 6384 c-1 -1 -90 -4 -197 -7 -107 -4 -202 -8 -210 -10 -70 -18
-69 -17 -80 -72 -14 -67 -20 -173 -25 -459 -2 -125 -6 -230 -8 -233 -3 -2 -1
-19 3 -37 4 -19 4 -39 0 -46 -4 -7 -4 -27 0 -46 4 -19 4 -50 0 -69 -4 -20 -4
-38 1 -41 5 -3 7 -10 3 -15 -7 -11 -7 -12 0 -604 8 -598 19 -1096 32 -1375 3
-58 4 -116 4 -130 -4 -70 11 -152 33 -184 12 -17 24 -33 27 -36 3 -3 38 -50
78 -105 40 -55 78 -107 85 -115 7 -8 30 -40 52 -70 22 -30 43 -57 47 -58 5 -2
8 -10 8 -17 0 -7 4 -15 8 -17 4 -1 21 -21 37 -43 17 -22 38 -49 47 -60 29 -35
312 -390 338 -425 14 -18 32 -41 40 -50 8 -10 42 -53 75 -96 78 -102 109 -131
151 -143 28 -8 1079 -8 1079 -1 0 6 312 10 992 14 430 2 787 7 793 11 5 3 10
3 10 -2 0 -4 22 -7 50 -5 27 1 73 3 101 5 28 1 53 -1 56 -6 2 -4 9 -4 15 -1 5
3 98 8 206 10 268 5 385 10 409 18 11 3 32 30 47 59 49 91 61 112 68 115 5 2
8 11 8 21 0 9 4 21 9 27 5 5 49 86 97 179 l87 170 -2 675 c-4 1022 -14 1575
-36 1857 -8 105 -73 179 -180 203 -53 12 -246 14 -455 6 -364 -15 -443 -18
-530 -21 -52 -2 -131 -5 -175 -6 -92 -2 -148 -19 -187 -56 -46 -44 -48 -65
-53 -593 -4 -485 -9 -606 -28 -624 -14 -15 -54 -23 -147 -32 -36 -3 -68 -8
-72 -10 -5 -3 -8 0 -8 6 0 6 -5 8 -12 4 -14 -9 -47 -10 -358 -18 -124 -3 -308
-8 -410 -12 -293 -9 -505 -11 -521 -5 -8 3 -15 12 -17 19 -4 22 -11 231 -17
496 -3 137 -8 253 -11 257 -3 5 0 9 6 9 6 0 8 5 5 10 -4 6 -8 201 -11 433 -6
720 -16 1081 -30 1141 -4 17 -7 34 -6 38 3 12 -26 73 -45 95 -45 51 -121 59
-658 68 -159 2 -364 6 -453 7 -90 2 -164 2 -165 2z"/>
</g>
</svg>
