<?xml version="1.0" standalone="no"?>
<!DOCTYPE svg PUBLIC "-//W3C//DTD SVG 20010904//EN"
 "http://www.w3.org/TR/2001/REC-SVG-20010904/DTD/svg10.dtd">
<svg version="1.0" xmlns="http://www.w3.org/2000/svg"
 width="1566.000000pt" height="1566.000000pt" viewBox="0 0 1566.000000 1566.000000"
 preserveAspectRatio="xMidYMid meet">
<metadata>
Created by potrace 1.11, written by Peter Selinger 2001-2013
</metadata>
<g transform="translate(0.000000,1566.000000) scale(0.100000,-0.100000)"
fill="#000000" stroke="none">
<path d="M2087 11513 c-1 -1 -187 -4 -412 -6 -226 -3 -410 -6 -410 -7 0 -1
-15 -3 -33 -4 -64 -5 -70 -28 -68 -295 1 -129 -3 -215 -9 -219 -11 -7 -112 -5
-125 3 -5 3 -11 1 -14 -4 -3 -5 -14 -8 -24 -6 -59 12 -82 14 -78 6 3 -4 -11
-5 -32 -2 -40 7 -297 5 -322 -2 -29 -8 -54 -21 -73 -36 -23 -20 -118 -147
-136 -183 -8 -16 -18 -28 -23 -28 -4 0 -8 -6 -8 -13 0 -7 -11 -29 -25 -48 -13
-20 -21 -39 -18 -43 4 -3 1 -6 -5 -6 -7 0 -12 -6 -12 -14 0 -8 -3 -16 -7 -18
-5 -1 -20 -25 -36 -53 -102 -185 -124 -263 -82 -291 48 -31 103 -35 616 -37
l416 -2 -1 -630 c-1 -387 -5 -633 -11 -637 -13 -10 -38 7 -41 28 -2 11 -6 154
-9 319 -9 447 -14 675 -18 725 -3 48 -22 86 -47 95 -29 12 -188 17 -507 19
-281 0 -325 -1 -338 -15 -10 -10 -18 -43 -22 -85 -9 -93 -8 -677 1 -1009 11
-409 10 -398 43 -442 15 -21 30 -40 33 -43 3 -3 25 -30 50 -60 24 -30 118
-141 207 -246 129 -151 171 -193 198 -201 19 -6 37 -8 39 -4 3 4 30 4 61 1 31
-3 58 -3 60 0 5 8 42 6 50 -2 3 -3 23 -2 44 2 20 4 46 5 57 3 18 -4 49 -4 104
1 14 2 30 1 35 -1 7 -2 11 -618 12 -1816 3 -2185 1 -2035 32 -2055 13 -9 31
-18 40 -19 9 -2 220 -5 468 -8 249 -2 457 -7 463 -10 5 -3 10 -3 10 2 0 9 103
8 126 -1 8 -3 14 -1 14 4 0 5 6 7 13 5 6 -3 568 -7 1247 -8 l1235 -3 35 -22
c77 -47 192 -43 240 8 14 14 392 16 4315 16 3789 1 5069 5 5140 18 34 6 53 17
60 34 16 42 19 309 18 1970 l0 1772 21 1 c47 2 146 8 221 14 44 3 114 7 155
10 149 9 326 23 382 30 142 18 142 18 141 255 0 96 -4 254 -8 350 -4 96 -8
195 -8 220 -1 25 -6 48 -12 52 -7 5 -6 8 1 8 6 0 10 12 8 28 -3 25 -9 155 -19
387 -14 340 -20 401 -40 428 -20 27 -73 43 -149 42 -36 0 -66 4 -66 9 0 5 -6
5 -12 0 -16 -11 -68 -11 -85 -1 -7 5 -13 5 -13 0 0 -10 -182 -9 -198 1 -7 4
-12 3 -12 -3 0 -6 -6 -8 -14 -5 -18 7 -106 10 -106 4 0 -3 -21 -6 -47 -7 -61
-2 -96 -28 -99 -74 -5 -79 -5 -225 0 -384 7 -205 16 -434 19 -449 1 -6 -13
-12 -30 -14 l-33 -3 0 248 c-1 761 -1 1411 -1 1433 1 24 3 25 79 26 185 3 217
6 235 25 9 10 17 21 17 25 0 4 11 22 25 40 14 18 25 37 25 43 0 6 3 11 8 11 4
0 25 28 47 63 22 34 45 68 52 75 7 7 13 17 13 21 0 4 9 17 20 29 12 12 18 22
15 22 -4 0 6 17 22 38 57 73 133 208 133 236 0 11 -31 51 -81 108 l-25 29
-255 4 c-140 3 -270 5 -290 5 l-35 0 1 75 c1 133 -4 137 -220 142 -152 5
-12314 11 -12318 6z"/>
</g>
</svg>
